<?xml version="1.0" encoding="UTF-8"?>
<svg version="1.1" xmlns="http://www.w3.org/2000/svg" width="1500" height="1500">
<path d="M0 0 C7.92 0 15.84 0 24 0 C24 0.66 24 1.32 24 2 C24.76183594 1.98839844 25.52367187 1.97679687 26.30859375 1.96484375 C32.63840322 1.90952706 38.72555549 2.1634074 45 3 C45 3.66 45 4.32 45 5 C45.75023437 5.02578125 46.50046875 5.0515625 47.2734375 5.078125 C53.62137966 5.42990013 58.72674528 6.36343865 64.53125 8.9453125 C68.56918569 10.67037996 72.77801153 11.81425005 77 13 C77 13.66 77 14.32 77 15 C79.31 15.33 81.62 15.66 84 16 C84 16.66 84 17.32 84 18 C84.81726563 18.23460937 85.63453125 18.46921875 86.4765625 18.7109375 C90.73071995 20.26733657 94.46373396 22.36169958 98.375 24.625 C99.11105469 25.04523437 99.84710937 25.46546875 100.60546875 25.8984375 C102.4063765 26.92752764 104.20357318 27.96310756 106 29 C106 29.66 106 30.32 106 31 C107.32 31.33 108.64 31.66 110 32 C110 32.66 110 33.32 110 34 C110.8353125 34.0928125 110.8353125 34.0928125 111.6875 34.1875 C114.97272942 35.34176979 116.607803 37.49388886 119 40 C120.09421319 40.90796414 121.1983837 41.80407131 122.3125 42.6875 C123.199375 43.450625 124.08625 44.21375 125 45 C125 45.66 125 46.32 125 47 C125.99 47.33 126.98 47.66 128 48 C128 48.66 128 49.32 128 50 C128.99 50.33 129.98 50.66 131 51 C132.36639342 52.6396721 133.6949419 54.31110128 135 56 C135.86625 56.825 136.7325 57.65 137.625 58.5 C139.97485987 60.97353671 140.98828861 62.78091832 142 66 C142.66 66 143.32 66 144 66 C144.33 66.99 144.66 67.98 145 69 C145.515625 69.495 146.03125 69.99 146.5625 70.5 C148 72 148 72 148 75 C148.66 75 149.32 75 150 75 C150.33 76.32 150.66 77.64 151 79 C151.66 79 152.32 79 153 79 C157 85.625 157 85.625 157 89 C157.66 89 158.32 89 159 89 C159.8394882 91.10171867 160.67139656 93.20646625 161.5 95.3125 C162.19609375 97.07013672 162.19609375 97.07013672 162.90625 98.86328125 C164 102 164 102 164 105 C164.66 105 165.32 105 166 105 C166.33 107.97 166.66 110.94 167 114 C167.66 114 168.32 114 169 114 C169.33 117.3 169.66 120.6 170 124 C170.66 124 171.32 124 172 124 C172.84681133 129.08086796 173.09038099 133.84828377 173 139 C173.66 139 174.32 139 175 139 C175 155.83 175 172.66 175 190 C174.34 190 173.68 190 173 190 C172.67 194.62 172.34 199.24 172 204 C171.34 204 170.68 204 170 204 C169.98582031 204.58265625 169.97164062 205.1653125 169.95703125 205.765625 C169.51979169 213.28141853 167.05300004 219.18946144 164 226 C163.42278317 227.47348601 162.85802642 228.95198958 162.3125 230.4375 C161.25309899 233.31301702 160.15323592 236.16126543 159 239 C158.34 239 157.68 239 157 239 C156.67 240.65 156.34 242.3 156 244 C155.34 244 154.68 244 154 244 C153.87625 244.969375 153.7525 245.93875 153.625 246.9375 C153.315625 248.4534375 153.315625 248.4534375 153 250 C152.34 250.33 151.68 250.66 151 251 C150.67 251.99 150.34 252.98 150 254 C149.34 254 148.68 254 148 254 C147.67 255.32 147.34 256.64 147 258 C146.34 258 145.68 258 145 258 C144.938125 258.721875 144.87625 259.44375 144.8125 260.1875 C143.74989961 263.86573212 141.77583027 265.42727926 139 268 C138.34 268.99 137.68 269.98 137 271 C136.34 271 135.68 271 135 271 C134.67 271.99 134.34 272.98 134 274 C133.34 274 132.68 274 132 274 C131.6596875 275.11375 131.6596875 275.11375 131.3125 276.25 C129.73124115 279.56311379 127.93160239 280.83619823 125 283 C123.9171875 284.11375 123.9171875 284.11375 122.8125 285.25 C121 287 121 287 119 287 C119 287.66 119 288.32 119 289 C117.02053408 290.36363208 115.0180755 291.69418644 113 293 C112.4225 293.5775 111.845 294.155 111.25 294.75 C110.8375 295.1625 110.425 295.575 110 296 C109.34 296 108.68 296 108 296 C108 296.66 108 297.32 108 298 C106.68 298.33 105.36 298.66 104 299 C104 299.66 104 300.32 104 301 C101.69 301.66 99.38 302.32 97 303 C97 303.66 97 304.32 97 305 C95.35 305.33 93.7 305.66 92 306 C92 306.66 92 307.32 92 308 C90.56570999 308.67354499 89.12742943 309.33859701 87.6875 310 C86.88699219 310.37125 86.08648438 310.7425 85.26171875 311.125 C83 312 83 312 80 312 C80 312.66 80 313.32 80 314 C78.02 314.33 76.04 314.66 74 315 C74 315.66 74 316.32 74 317 C71.36 317.33 68.72 317.66 66 318 C66 318.66 66 319.32 66 320 C65.00097656 320.20496094 64.00195312 320.40992188 62.97265625 320.62109375 C61.68230469 320.89050781 60.39195312 321.15992188 59.0625 321.4375 C57.13083984 321.83775391 57.13083984 321.83775391 55.16015625 322.24609375 C52.15361121 322.67181616 52.15361121 322.67181616 51 324 C47.38378521 324.57859437 43.75698478 325.0313568 40.125 325.5 C37.14022705 325.66426968 37.14022705 325.66426968 36 327 C28.2266437 328.17482845 20.34219382 328.15386697 12.5 328.125 C10.92412109 328.13080078 10.92412109 328.13080078 9.31640625 328.13671875 C-9.88701849 328.11298151 -9.88701849 328.11298151 -12 326 C-15.45382125 325.45562288 -18.9176626 325.03357777 -22.38671875 324.59765625 C-25.78724354 324.03519107 -28.75807071 323.14290237 -32 322 C-33.61878424 321.59901675 -35.24359112 321.22105643 -36.875 320.875 C-37.65617188 320.70742187 -38.43734375 320.53984375 -39.2421875 320.3671875 C-39.82226562 320.24601562 -40.40234375 320.12484375 -41 320 C-41 319.34 -41 318.68 -41 318 C-43.64 317.67 -46.28 317.34 -49 317 C-49 316.34 -49 315.68 -49 315 C-51.31 314.67 -53.62 314.34 -56 314 C-56 313.34 -56 312.68 -56 312 C-57.98 311.67 -59.96 311.34 -62 311 C-62 310.34 -62 309.68 -62 309 C-63.1446875 308.690625 -63.1446875 308.690625 -64.3125 308.375 C-69.49898594 306.44105609 -74.19033084 303.7214854 -79 301 C-79 300.34 -79 299.68 -79 299 C-80.32 298.67 -81.64 298.34 -83 298 C-83 297.34 -83 296.68 -83 296 C-84.32 295.67 -85.64 295.34 -87 295 C-87 294.34 -87 293.68 -87 293 C-87.556875 292.938125 -88.11375 292.87625 -88.6875 292.8125 C-91.95096487 291.66587721 -93.64054906 289.48044843 -96 287 C-96.99 286.34 -97.98 285.68 -99 285 C-99 284.34 -99 283.68 -99 283 C-99.99 282.67 -100.98 282.34 -102 282 C-102 281.34 -102 280.68 -102 280 C-102.99 279.67 -103.98 279.34 -105 279 C-106.36639342 277.3603279 -107.6949419 275.68889872 -109 274 C-110.1446875 272.88625 -110.1446875 272.88625 -111.3125 271.75 C-128 254.6744186 -128 254.6744186 -128 247 C-128.66 247 -129.32 247 -130 247 C-131.17374173 244.56568361 -132.33915763 242.12795818 -133.5 239.6875 C-133.83386719 238.99720703 -134.16773438 238.30691406 -134.51171875 237.59570312 C-137 232.33984375 -137 232.33984375 -137 229 C-137.66 229 -138.32 229 -139 229 C-139.33 226.69 -139.66 224.38 -140 222 C-140.66 222 -141.32 222 -142 222 C-142.66 219.36 -143.32 216.72 -144 214 C-144.33 214 -144.66 214 -145 214 C-145.20496094 212.78441406 -145.40992188 211.56882812 -145.62109375 210.31640625 C-145.89301961 208.73173486 -146.16516643 207.14710137 -146.4375 205.5625 C-146.57220703 204.76005859 -146.70691406 203.95761719 -146.84570312 203.13085938 C-147.20267224 199.24528697 -147.20267224 199.24528697 -149 196 C-149.21480132 194.47737192 -149.37070032 192.94632144 -149.5 191.4140625 C-149.5825 190.48335937 -149.665 189.55265625 -149.75 188.59375 C-149.8325 187.6140625 -149.915 186.634375 -150 185.625 C-150.16337497 183.7002386 -150.3299068 181.77574184 -150.5 179.8515625 C-150.5721875 178.99385254 -150.644375 178.13614258 -150.71875 177.25244141 C-150.94566633 174.83592278 -150.94566633 174.83592278 -152 172 C-152.09644305 169.32228714 -152.1392892 166.67684323 -152.125 164 C-152.12886719 163.27554688 -152.13273438 162.55109375 -152.13671875 161.8046875 C-152.13081927 158.60717121 -152.01805798 156.05417393 -151 153 C-150.81013507 151.44527345 -150.65959321 149.88554472 -150.53515625 148.32421875 C-150.45716797 147.41349609 -150.37917969 146.50277344 -150.29882812 145.56445312 C-150.14225823 143.65844107 -149.98857511 141.7521895 -149.83789062 139.84570312 C-149.41048311 134.91487986 -148.73644361 130.66880363 -147 126 C-146.58743605 124.04923465 -146.21056873 122.09047401 -145.875 120.125 C-145.70742188 119.15820312 -145.53984375 118.19140625 -145.3671875 117.1953125 C-145.18542969 116.10863281 -145.18542969 116.10863281 -145 115 C-144.34 115 -143.68 115 -143 115 C-142.67 112.36 -142.34 109.72 -142 107 C-141.34 107 -140.68 107 -140 107 C-139.90589844 105.99324219 -139.81179688 104.98648438 -139.71484375 103.94921875 C-139.12751677 99.848252 -137.50336695 96.43729632 -135.5625 92.8125 C-135.24990234 92.20986328 -134.93730469 91.60722656 -134.61523438 90.98632812 C-133.75038331 89.32062131 -132.87555023 87.66010794 -132 86 C-131.32904956 84.66881717 -130.660025 83.33663354 -130 82 C-129.34 82 -128.68 82 -128 82 C-127.80857422 81.13375 -127.80857422 81.13375 -127.61328125 80.25 C-126.07070257 74.59060306 -123.36079523 69.92471571 -119 66 C-118.01 64.515 -118.01 64.515 -117 63 C-116.34 63 -115.68 63 -115 63 C-114.71125 62.401875 -114.4225 61.80375 -114.125 61.1875 C-113 59 -113 59 -111 56 C-110.34 56 -109.68 56 -109 56 C-108.835 55.319375 -108.67 54.63875 -108.5 53.9375 C-105.93361266 48.91165812 -101.37078028 44.79026009 -96 43 C-95.67 42.01 -95.34 41.02 -95 40 C-94.34 40 -93.68 40 -93 40 C-93 39.34 -93 38.68 -93 38 C-91.02 37.505 -91.02 37.505 -89 37 C-89 36.34 -89 35.68 -89 35 C-87.23042094 32.6716065 -86.18416484 32.04711194 -83.3125 31.3125 C-82.549375 31.209375 -81.78625 31.10625 -81 31 C-81 30.34 -81 29.68 -81 29 C-79.54462432 28.16151196 -78.08559627 27.32936066 -76.625 26.5 C-75.81289063 26.0359375 -75.00078125 25.571875 -74.1640625 25.09375 C-72 24 -72 24 -70 24 C-70 23.34 -70 22.68 -70 22 C-68.35 21.67 -66.7 21.34 -65 21 C-65 20.34 -65 19.68 -65 19 C-63.02 18.67 -61.04 18.34 -59 18 C-59 17.34 -59 16.68 -59 16 C-56.03 15.505 -56.03 15.505 -53 15 C-53 14.34 -53 13.68 -53 13 C-52.32195312 12.82984375 -51.64390625 12.6596875 -50.9453125 12.484375 C-46.14893622 11.23545708 -41.55845954 9.8942664 -37 7.9375 C-32.45605134 6.02656172 -28.01563629 5.12436618 -23.15234375 4.39453125 C-21.02604283 4.21538546 -21.02604283 4.21538546 -20 3 C-13.32796347 1.86701266 -6.75381462 1.89869278 0 2 C0 1.34 0 0.68 0 0 Z " fill="#4A4A49" transform="translate(883,765)"/>
<path d="M0 0 C0.85754883 -0.00095673 1.71509766 -0.00191345 2.59863281 -0.00289917 C4.40039138 -0.00357557 6.20215245 -0.00175924 8.00390625 0.00244141 C10.74224384 0.00779733 13.48041744 0.00247795 16.21875 -0.00390625 C17.97916702 -0.00324537 19.73958395 -0.00196401 21.5 0 C22.30856445 -0.00202423 23.11712891 -0.00404846 23.95019531 -0.00613403 C37.66688634 0.04969884 37.66688634 0.04969884 39.75 2.1328125 C41.74460976 2.45931112 43.74621158 2.74342375 45.75 3.0078125 C50.69661595 3.72919399 55.18361456 4.75950345 59.87109375 6.46875 C62.12887921 7.26671991 64.38803975 7.75185117 66.75 8.1328125 C66.75 8.7928125 66.75 9.4528125 66.75 10.1328125 C69.06 10.4628125 71.37 10.7928125 73.75 11.1328125 C73.75 11.7928125 73.75 12.4528125 73.75 13.1328125 C76.06 13.4628125 78.37 13.7928125 80.75 14.1328125 C80.75 14.7928125 80.75 15.4528125 80.75 16.1328125 C82.73 16.4628125 84.71 16.7928125 86.75 17.1328125 C86.75 17.7928125 86.75 18.4528125 86.75 19.1328125 C88.4 19.4628125 90.05 19.7928125 91.75 20.1328125 C91.75 20.7928125 91.75 21.4528125 91.75 22.1328125 C92.61625 22.4009375 93.4825 22.6690625 94.375 22.9453125 C97.66791964 24.10393237 100.66127875 25.51491089 103.75 27.1328125 C103.75 27.7928125 103.75 28.4528125 103.75 29.1328125 C105.07 29.4628125 106.39 29.7928125 107.75 30.1328125 C107.75 30.7928125 107.75 31.4528125 107.75 32.1328125 C108.348125 32.2359375 108.94625 32.3390625 109.5625 32.4453125 C112.06258286 33.23105283 113.12535082 34.10200103 114.75 36.1328125 C114.75 36.7928125 114.75 37.4528125 114.75 38.1328125 C116.4 38.7928125 118.05 39.4528125 119.75 40.1328125 C119.75 40.7928125 119.75 41.4528125 119.75 42.1328125 C120.61625 42.225625 120.61625 42.225625 121.5 42.3203125 C124.66964348 43.46490598 125.74420228 45.45841555 127.75 48.1328125 C128.9565625 49.339375 128.9565625 49.339375 130.1875 50.5703125 C132.93169541 53.31450791 135.36759253 56.06971719 137.75 59.1328125 C137.75 59.7928125 137.75 60.4528125 137.75 61.1328125 C138.74 61.4628125 139.73 61.7928125 140.75 62.1328125 C142.42351849 64.41908732 143.9465135 66.67094188 145.4375 69.0703125 C145.85322266 69.71677734 146.26894531 70.36324219 146.69726562 71.02929688 C149.75 75.85652709 149.75 75.85652709 149.75 78.1328125 C150.41 78.1328125 151.07 78.1328125 151.75 78.1328125 C152.08 79.7828125 152.41 81.4328125 152.75 83.1328125 C153.41 83.1328125 154.07 83.1328125 154.75 83.1328125 C155.08 85.1128125 155.41 87.0928125 155.75 89.1328125 C156.41 89.1328125 157.07 89.1328125 157.75 89.1328125 C161.35783211 96.64420067 164.23544995 104.19386192 166.75 112.1328125 C167.08515625 113.11765625 167.4203125 114.1025 167.765625 115.1171875 C169.80346549 121.36009567 171.52628782 127.80004751 172.375 134.3203125 C172.44676169 137.03205755 172.44676169 137.03205755 173.75 138.1328125 C173.84333705 139.72892232 173.86745372 141.32914678 173.86352539 142.92797852 C173.86344986 143.94896133 173.86337433 144.96994415 173.86329651 146.02186584 C173.85813522 147.1322673 173.85297394 148.24266876 173.84765625 149.38671875 C173.84553383 151.08259377 173.84553383 151.08259377 173.84336853 152.81272888 C173.83775019 156.44028315 173.82519458 160.06777674 173.8125 163.6953125 C173.80748736 166.14778557 173.80292405 168.6002596 173.79882812 171.05273438 C173.7877748 177.07944795 173.77101884 183.10612589 173.75 189.1328125 C173.09 189.1328125 172.43 189.1328125 171.75 189.1328125 C171.70101563 190.08542969 171.65203125 191.03804687 171.6015625 192.01953125 C171.48941406 193.90091797 171.48941406 193.90091797 171.375 195.8203125 C171.30539062 197.06167969 171.23578125 198.30304688 171.1640625 199.58203125 C170.77798275 202.8928472 170.08875939 205.12060388 168.75 208.1328125 C168.10728641 210.16897237 167.4834651 212.21115718 166.875 214.2578125 C161.72115385 231.16165865 161.72115385 231.16165865 158.75 234.1328125 C157.15221239 237.02880254 155.94768722 240.05304536 154.75 243.1328125 C154.09 243.1328125 153.43 243.1328125 152.75 243.1328125 C152.646875 243.8546875 152.54375 244.5765625 152.4375 245.3203125 C151.68206053 248.41074671 150.59468685 250.55025091 148.75 253.1328125 C148.09 253.1328125 147.43 253.1328125 146.75 253.1328125 C146.523125 253.8134375 146.29625 254.4940625 146.0625 255.1953125 C144.14708003 259.4822048 141.55327874 263.34779481 138.20703125 266.66015625 C136.52726527 268.25465914 136.52726527 268.25465914 134.875 271.0703125 C132.73345027 274.15666358 130.72354261 275.88452419 127.75 278.1328125 C126.945625 278.9371875 126.14125 279.7415625 125.3125 280.5703125 C122.56830459 283.31450791 119.81309531 285.75040503 116.75 288.1328125 C116.09 288.1328125 115.43 288.1328125 114.75 288.1328125 C114.42 289.1228125 114.09 290.1128125 113.75 291.1328125 C113.09 291.1328125 112.43 291.1328125 111.75 291.1328125 C111.75 291.7928125 111.75 292.4528125 111.75 293.1328125 C110.43 293.4628125 109.11 293.7928125 107.75 294.1328125 C107.75 294.7928125 107.75 295.4528125 107.75 296.1328125 C106.43 296.4628125 105.11 296.7928125 103.75 297.1328125 C103.75 297.7928125 103.75 298.4528125 103.75 299.1328125 C102.925 299.5246875 102.1 299.9165625 101.25 300.3203125 C97.86307411 302.07425627 94.74795617 304.02767021 91.58203125 306.14453125 C89.75 307.1328125 89.75 307.1328125 86.75 307.1328125 C86.75 307.7928125 86.75 308.4528125 86.75 309.1328125 C84.77 309.4628125 82.79 309.7928125 80.75 310.1328125 C80.75 310.7928125 80.75 311.4528125 80.75 312.1328125 C78.77 312.4628125 76.79 312.7928125 74.75 313.1328125 C74.75 313.7928125 74.75 314.4528125 74.75 315.1328125 C74.02554688 315.32617188 73.30109375 315.51953125 72.5546875 315.71875 C63.87538006 318.00026187 63.87538006 318.00026187 55.4765625 321.125 C52.47737984 322.23358041 49.66080927 322.73209045 46.5 323.1953125 C42.80972484 323.46076082 42.80972484 323.46076082 39.75 325.1328125 C31.1181456 326.35731133 22.49086452 326.28559289 13.79174805 326.26318359 C11.32138918 326.25783176 8.85121268 326.26315108 6.38085938 326.26953125 C-1.88089642 326.27264666 -10.03528351 326.13692235 -18.25 325.1328125 C-18.25 324.4728125 -18.25 323.8128125 -18.25 323.1328125 C-19.08402344 323.09542969 -19.91804687 323.05804687 -20.77734375 323.01953125 C-27.81721815 322.60826711 -33.69709678 321.64475873 -40.25 319.1328125 C-42.43483404 318.39569616 -44.622455 317.66679929 -46.8125 316.9453125 C-48.625 316.34114583 -50.4375 315.73697917 -52.25 315.1328125 C-52.25 314.4728125 -52.25 313.8128125 -52.25 313.1328125 C-54.56 312.8028125 -56.87 312.4728125 -59.25 312.1328125 C-59.25 311.4728125 -59.25 310.8128125 -59.25 310.1328125 C-60.136875 309.8440625 -61.02375 309.5553125 -61.9375 309.2578125 C-64.75382424 308.30132502 -67.50083156 307.26482304 -70.25 306.1328125 C-70.25 305.4728125 -70.25 304.8128125 -70.25 304.1328125 C-70.95125 303.8646875 -71.6525 303.5965625 -72.375 303.3203125 C-75.4149824 302.0646676 -78.3227774 300.63046127 -81.25 299.1328125 C-81.25 298.4728125 -81.25 297.8128125 -81.25 297.1328125 C-81.971875 297.0709375 -82.69375 297.0090625 -83.4375 296.9453125 C-87.17541556 295.86547023 -88.5579137 293.94726636 -91.25 291.1328125 C-93.48973478 289.33539518 -95.76955382 287.60254074 -98.06640625 285.87890625 C-100.30858104 284.08596862 -102.32683538 282.26530116 -104.25 280.1328125 C-104.25 279.4728125 -104.25 278.8128125 -104.25 278.1328125 C-105.24 277.8028125 -106.23 277.4728125 -107.25 277.1328125 C-108.6796875 275.4609375 -108.6796875 275.4609375 -110.125 273.3828125 C-112.58523387 269.96649764 -115.22848953 267.07480954 -118.25 264.1328125 C-122.25 259.59227196 -122.25 259.59227196 -122.25 256.1328125 C-123.24 255.8028125 -124.23 255.4728125 -125.25 255.1328125 C-126.56640625 253.171875 -126.56640625 253.171875 -127.8125 250.7578125 C-129.20394269 248.09629906 -130.5791777 245.63904595 -132.25 243.1328125 C-132.25 242.1428125 -132.25 241.1528125 -132.25 240.1328125 C-132.91 240.1328125 -133.57 240.1328125 -134.25 240.1328125 C-134.58 238.1528125 -134.91 236.1728125 -135.25 234.1328125 C-135.91 234.1328125 -136.57 234.1328125 -137.25 234.1328125 C-137.92305018 232.53131364 -138.58822227 230.92650221 -139.25 229.3203125 C-139.62125 228.42699219 -139.9925 227.53367187 -140.375 226.61328125 C-141.25 224.1328125 -141.25 224.1328125 -141.25 221.1328125 C-141.91 221.1328125 -142.57 221.1328125 -143.25 221.1328125 C-145.54040396 213.51666339 -147.62691768 206.00955446 -148.85546875 198.14453125 C-149.05376138 196.14311592 -149.05376138 196.14311592 -150.25 195.1328125 C-150.46515945 193.52528005 -150.62085859 191.90968662 -150.75 190.29296875 C-150.8325 189.31263672 -150.915 188.33230469 -151 187.32226562 C-151.12375 185.77442383 -151.12375 185.77442383 -151.25 184.1953125 C-151.41292926 182.16506119 -151.57942106 180.13509166 -151.75 178.10546875 C-151.8221875 177.20062744 -151.894375 176.29578613 -151.96875 175.36352539 C-152.12903462 173.09822943 -152.12903462 173.09822943 -153.25 171.1328125 C-153.34809858 168.45529832 -153.3890397 165.80971533 -153.375 163.1328125 C-153.37886719 162.39546875 -153.38273438 161.658125 -153.38671875 160.8984375 C-153.3766598 155.3861321 -153.3766598 155.3861321 -152.25 153.1328125 C-152.05332705 151.55020133 -151.90593317 149.96129854 -151.78515625 148.37109375 C-151.66817383 146.93926758 -151.66817383 146.93926758 -151.54882812 145.47851562 C-151.39281207 143.47609472 -151.23911889 141.47349131 -151.08789062 139.47070312 C-150.64290492 134.07660817 -149.89970314 129.28326365 -148.25 124.1328125 C-147.91547075 122.51220415 -147.60054515 120.88732508 -147.3125 119.2578125 C-146.37829748 114.38501215 -144.93825752 109.79240326 -143.25 105.1328125 C-142.59 105.1328125 -141.93 105.1328125 -141.25 105.1328125 C-141.0953125 103.5859375 -141.0953125 103.5859375 -140.9375 102.0078125 C-140.25872203 98.18197305 -139.13841205 95.49911225 -137.25 92.1328125 C-136.59 92.1328125 -135.93 92.1328125 -135.25 92.1328125 C-134.92 90.1528125 -134.59 88.1728125 -134.25 86.1328125 C-133.59 86.1328125 -132.93 86.1328125 -132.25 86.1328125 C-132.188125 85.4521875 -132.12625 84.7715625 -132.0625 84.0703125 C-131.11545516 80.64638117 -129.56462589 78.55451205 -127.40625 75.78125 C-126.053469 74.01969314 -126.053469 74.01969314 -125.25 71.1328125 C-124.26 70.6378125 -124.26 70.6378125 -123.25 70.1328125 C-122.96125 69.3696875 -122.6725 68.6065625 -122.375 67.8203125 C-121.0790917 64.72453155 -119.68584385 63.43698911 -117.25 61.1328125 C-114.01877261 57.56264517 -110.87762217 53.94702504 -107.9375 50.1328125 C-107.1021875 49.1428125 -107.1021875 49.1428125 -106.25 48.1328125 C-105.59 48.1328125 -104.93 48.1328125 -104.25 48.1328125 C-103.92 47.1428125 -103.59 46.1528125 -103.25 45.1328125 C-102.59 45.1328125 -101.93 45.1328125 -101.25 45.1328125 C-101.25 44.4728125 -101.25 43.8128125 -101.25 43.1328125 C-99.6 42.4728125 -97.95 41.8128125 -96.25 41.1328125 C-96.25 40.4728125 -96.25 39.8128125 -96.25 39.1328125 C-91.77941176 35.1328125 -91.77941176 35.1328125 -89.25 35.1328125 C-89.25 34.4728125 -89.25 33.8128125 -89.25 33.1328125 C-87.93 32.8028125 -86.61 32.4728125 -85.25 32.1328125 C-85.25 31.4728125 -85.25 30.8128125 -85.25 30.1328125 C-83.93 29.8028125 -82.61 29.4728125 -81.25 29.1328125 C-81.25 28.4728125 -81.25 27.8128125 -81.25 27.1328125 C-78.98354942 25.79150489 -76.71239903 24.45965016 -74.4375 23.1328125 C-73.79490234 22.75125 -73.15230469 22.3696875 -72.49023438 21.9765625 C-67.58984375 19.1328125 -67.58984375 19.1328125 -64.25 19.1328125 C-64.25 18.4728125 -64.25 17.8128125 -64.25 17.1328125 C-62.27 16.8028125 -60.29 16.4728125 -58.25 16.1328125 C-58.25 15.4728125 -58.25 14.8128125 -58.25 14.1328125 C-55.28 13.6378125 -55.28 13.6378125 -52.25 13.1328125 C-52.25 12.4728125 -52.25 11.8128125 -52.25 11.1328125 C-49.61 10.8028125 -46.97 10.4728125 -44.25 10.1328125 C-44.25 9.4728125 -44.25 8.8128125 -44.25 8.1328125 C-43.39277344 7.93945312 -42.53554688 7.74609375 -41.65234375 7.546875 C-34.61214077 5.94358187 -27.70979233 4.20220286 -20.8125 2.0703125 C-13.89124442 0.24892945 -7.11178478 -0.01780426 0 0 Z " fill="#B51621" transform="translate(884.25,406.8671875)"/>
<path d="M0 0 C7.92 0 15.84 0 24 0 C24 0.66 24 1.32 24 2 C24.76183594 1.98839844 25.52367187 1.97679687 26.30859375 1.96484375 C32.63840322 1.90952706 38.72555549 2.1634074 45 3 C45 3.66 45 4.32 45 5 C50.94 5.495 50.94 5.495 57 6 C57 6.66 57 7.32 57 8 C57.85271484 8.05607422 57.85271484 8.05607422 58.72265625 8.11328125 C64.12036322 8.57285229 68.11074252 9.69917295 73 12 C74.32276056 12.37308631 75.65232077 12.73046415 77 13 C77 13.66 77 14.32 77 15 C78.98 15.33 80.96 15.66 83 16 C83 16.66 83 17.32 83 18 C84.98 18.33 86.96 18.66 89 19 C89 19.66 89 20.32 89 21 C89.73476563 21.10699219 90.46953125 21.21398437 91.2265625 21.32421875 C94.1911339 22.04657206 95.90503221 23.05142188 98.375 24.8125 C101.19188578 26.77678323 103.98477424 28.60589542 107 30.25 C110 32 110 32 111 34 C111.99 34.33 112.98 34.66 114 35 C115.6875 36.4375 115.6875 36.4375 117 38 C117 38.66 117 39.32 117 40 C117.58265625 40.268125 118.1653125 40.53625 118.765625 40.8125 C121.02786601 42.01480991 122.80576318 43.33825913 124.75 45 C125.36359375 45.515625 125.9771875 46.03125 126.609375 46.5625 C128 48 128 48 128 50 C128.99 50.33 129.98 50.66 131 51 C132.4296875 52.671875 132.4296875 52.671875 133.875 54.75 C136.77778409 58.77644245 139.97397106 62.19908539 143.6875 65.5 C145.40076364 67.45801559 146.05100693 69.59588423 147 72 C147.66 72.33 148.32 72.66 149 73 C153 79.35294118 153 79.35294118 153 83 C153.66 83 154.32 83 155 83 C156.17374173 85.43431639 157.33915763 87.87204182 158.5 90.3125 C158.83386719 91.00279297 159.16773438 91.69308594 159.51171875 92.40429688 C162 97.66015625 162 97.66015625 162 101 C162.66 101 163.32 101 164 101 C164.33 103.31 164.66 105.62 165 108 C165.66 108 166.32 108 167 108 C167.12117188 108.58007812 167.24234375 109.16015625 167.3671875 109.7578125 C167.53476562 110.53898438 167.70234375 111.32015625 167.875 112.125 C168.03742188 112.89070312 168.19984375 113.65640625 168.3671875 114.4453125 C168.98422884 117.08091317 168.98422884 117.08091317 169.97265625 119.9140625 C171.0021311 123.00640141 171.81637457 126.07799034 172.5625 129.25 C172.81128906 130.28640625 173.06007813 131.3228125 173.31640625 132.390625 C175.14802253 142.06155894 175.15639862 151.72163205 175.13037109 161.53100586 C175.12501911 163.92893824 175.13033933 166.32668273 175.13671875 168.72460938 C175.14190314 179.40431612 175.12714959 189.69880135 172 200 C171.6717703 201.78885186 171.36068902 203.58089605 171.0625 205.375 C170.18490651 210.45100073 168.78694067 215.1752602 167 220 C166.34 220 165.68 220 165 220 C164.67 222.64 164.34 225.28 164 228 C163.34 228 162.68 228 162 228 C161.67 229.98 161.34 231.96 161 234 C160.34 234 159.68 234 159 234 C158.89429688 234.71027344 158.78859375 235.42054688 158.6796875 236.15234375 C157.9220259 239.32668459 156.71566457 241.71750542 155.125 244.5625 C154.61195313 245.49191406 154.09890625 246.42132812 153.5703125 247.37890625 C152 250 152 250 150.3671875 252.15234375 C148.8076426 254.06024799 148.8076426 254.06024799 148 257 C147.34 257.33 146.68 257.66 146 258 C145.67 258.99 145.34 259.98 145 261 C144.34 261 143.68 261 143 261 C142.690625 262.0209375 142.690625 262.0209375 142.375 263.0625 C140.57104973 266.91639375 138.0989655 270.07787764 135 273 C134.34 273 133.68 273 133 273 C132.62875 273.8353125 132.62875 273.8353125 132.25 274.6875 C129.66137338 279.47645924 126.30871423 282.74219168 122 286 C121.113125 286.7425 120.22625 287.485 119.3125 288.25 C117 290 117 290 115 290 C115 290.66 115 291.32 115 292 C113.68 292.33 112.36 292.66 111 293 C111 293.66 111 294.32 111 295 C108.95955971 297.44852835 106.85735229 298.66061611 104 300 C103.01 300.66 102.02 301.32 101 302 C99.00861946 303.22248639 97.00758275 304.42930733 95 305.625 C93.4221875 306.57246094 93.4221875 306.57246094 91.8125 307.5390625 C89 309 89 309 86 309 C86 309.66 86 310.32 86 311 C84.02 311.33 82.04 311.66 80 312 C80 312.66 80 313.32 80 314 C77.69 314.33 75.38 314.66 73 315 C73 315.66 73 316.32 73 317 C70.36 317.33 67.72 317.66 65 318 C65 318.66 65 319.32 65 320 C61.67037957 320.84865597 58.33581652 321.67606668 55 322.5 C54.06542969 322.73847656 53.13085938 322.97695312 52.16796875 323.22265625 C46.61709565 324.58126155 41.71350121 325.26950477 36 325 C36 325.66 36 326.32 36 327 C27.9812848 327.88181763 20.06361844 328.15339302 12 328.125 C10.90171875 328.12886719 9.8034375 328.13273437 8.671875 328.13671875 C1.72751942 328.12849084 -5.09726566 327.75909328 -12 327 C-12 326.34 -12 325.68 -12 325 C-13.7634375 325.0309375 -13.7634375 325.0309375 -15.5625 325.0625 C-20.28989307 325.05414772 -24.88505849 324.85740872 -29.3125 323.0625 C-32.70860402 321.71985422 -36.10343688 321.17388308 -39.6953125 320.5625 C-42 320 -42 320 -45 318 C-47.11280345 317.36707617 -47.11280345 317.36707617 -49 317 C-49 316.34 -49 315.68 -49 315 C-51.31 314.67 -53.62 314.34 -56 314 C-56 313.34 -56 312.68 -56 312 C-57.98 311.67 -59.96 311.34 -62 311 C-62 310.34 -62 309.68 -62 309 C-62.71929687 308.89558594 -63.43859375 308.79117187 -64.1796875 308.68359375 C-67.28934125 307.92986881 -69.41894344 306.75481977 -72.125 305.0625 C-72.97320312 304.53785156 -73.82140625 304.01320313 -74.6953125 303.47265625 C-76.47621096 302.33469232 -78.2415249 301.17231673 -80 300 C-80.61875 299.731875 -81.2375 299.46375 -81.875 299.1875 C-84.7436789 297.58441473 -86.71694276 295.34313769 -89 293 C-89.66 292.67 -90.32 292.34 -91 292 C-91 291.34 -91 290.68 -91 290 C-92.65 289.34 -94.3 288.68 -96 288 C-96 287.34 -96 286.68 -96 286 C-96.5775 285.938125 -97.155 285.87625 -97.75 285.8125 C-100.91964348 284.66790652 -101.99420228 282.67439695 -104 280 C-104.76183594 279.24460937 -105.52367187 278.48921875 -106.30859375 277.7109375 C-109.09797387 274.90131514 -111.62622041 271.93925264 -114.125 268.875 C-117.2957513 264.95529023 -117.2957513 264.95529023 -120.76171875 261.30078125 C-122.55213017 259.42000207 -122.66017983 257.51466927 -123 255 C-123.66 255 -124.32 255 -125 255 C-125.33 254.01 -125.66 253.02 -126 252 C-126.66 251.67 -127.32 251.34 -128 251 C-128.625 247.9375 -128.625 247.9375 -129 245 C-129.99 244.67 -130.98 244.34 -132 244 C-132 243.01 -132 242.02 -132 241 C-132.66 241 -133.32 241 -134 241 C-134.8394882 238.89828133 -135.67139656 236.79353375 -136.5 234.6875 C-137.19609375 232.92986328 -137.19609375 232.92986328 -137.90625 231.13671875 C-139 228 -139 228 -139 225 C-139.66 225 -140.32 225 -141 225 C-141.67548578 222.94037148 -142.34004312 220.87715678 -143 218.8125 C-143.37125 217.66394531 -143.7425 216.51539063 -144.125 215.33203125 C-144.90630553 212.35679188 -145.18363306 210.04716104 -145 207 C-145.66 207 -146.32 207 -147 207 C-147.33 202.71 -147.66 198.42 -148 194 C-148.66 194 -149.32 194 -150 194 C-150.02312821 186.32463373 -150.04091753 178.64927104 -150.05181217 170.97387791 C-150.05703995 167.41022578 -150.06413569 163.84659743 -150.07543945 160.28295898 C-150.08834176 156.18993903 -150.09322906 152.0969442 -150.09765625 148.00390625 C-150.10281754 146.71851456 -150.10797882 145.43312286 -150.11329651 144.10877991 C-150.11337204 142.92763107 -150.11344757 141.74648224 -150.11352539 140.52954102 C-150.115746 139.48363297 -150.11796661 138.43772491 -150.12025452 137.36012268 C-150 135 -150 135 -149 134 C-148.60333773 131.81980521 -148.25684763 129.6303537 -147.9375 127.4375 C-147.67259766 125.64119141 -147.67259766 125.64119141 -147.40234375 123.80859375 C-147.26957031 122.88175781 -147.13679688 121.95492187 -147 121 C-146.34 121 -145.68 121 -145 121 C-144.96261719 120.443125 -144.92523438 119.88625 -144.88671875 119.3125 C-144.40439364 113.71374576 -143.16758121 109.18334636 -141 104 C-140.34 104 -139.68 104 -139 104 C-138.855625 102.906875 -138.71125 101.81375 -138.5625 100.6875 C-138 97 -138 97 -137 94 C-136.34 94 -135.68 94 -135 94 C-134.67 92.02 -134.34 90.04 -134 88 C-133.34 88 -132.68 88 -132 88 C-131.67 86.35 -131.34 84.7 -131 83 C-130.34 83 -129.68 83 -129 83 C-128.67 81.35 -128.34 79.7 -128 78 C-127.34 78 -126.68 78 -126 78 C-125.87625 77.195625 -125.7525 76.39125 -125.625 75.5625 C-125.315625 74.2940625 -125.315625 74.2940625 -125 73 C-124.01 72.505 -124.01 72.505 -123 72 C-122.505 70.515 -122.505 70.515 -122 69 C-121.34 69 -120.68 69 -120 69 C-119.814375 68.34 -119.62875 67.68 -119.4375 67 C-117.7208288 63.41738184 -115.47347386 60.9254338 -112.8125 58.00390625 C-111.19591744 56.216607 -109.68571943 54.38615125 -108.1875 52.5 C-107.465625 51.675 -106.74375 50.85 -106 50 C-105.34 50 -104.68 50 -104 50 C-103.67 49.01 -103.34 48.02 -103 47 C-102.34 47 -101.68 47 -101 47 C-100.67 46.01 -100.34 45.02 -100 44 C-95.54285714 40 -95.54285714 40 -93 40 C-93 39.34 -93 38.68 -93 38 C-91.02709413 35.65130253 -89.99693138 34.99897713 -87 34 C-86.484375 33.484375 -85.96875 32.96875 -85.4375 32.4375 C-84.963125 31.963125 -84.48875 31.48875 -84 31 C-83.34 31 -82.68 31 -82 31 C-82 30.34 -82 29.68 -82 29 C-79.69 28.34 -77.38 27.68 -75 27 C-75 26.34 -75 25.68 -75 25 C-68.375 21 -68.375 21 -65 21 C-65 20.34 -65 19.68 -65 19 C-63.02 18.67 -61.04 18.34 -59 18 C-59 17.34 -59 16.68 -59 16 C-56.03 15.505 -56.03 15.505 -53 15 C-53 14.34 -53 13.68 -53 13 C-52.34773438 12.80664062 -51.69546875 12.61328125 -51.0234375 12.4140625 C-47.19714202 11.27407476 -43.39202251 10.13793385 -39.625 8.8125 C-37 8 -37 8 -33 8 C-33 7.34 -33 6.68 -33 6 C-29.04 5.67 -25.08 5.34 -21 5 C-21 4.34 -21 3.68 -21 3 C-13.96094956 2.06145994 -7.09727428 1.89191968 0 2 C0 1.34 0 0.68 0 0 Z " fill="#D58C25" transform="translate(531,765)"/>
<path d="M0 0 C0.85754883 -0.00095673 1.71509766 -0.00191345 2.59863281 -0.00289917 C4.40039138 -0.00357557 6.20215245 -0.00175924 8.00390625 0.00244141 C10.74224384 0.00779733 13.48041744 0.00247795 16.21875 -0.00390625 C17.97916702 -0.00324537 19.73958395 -0.00196401 21.5 0 C22.30856445 -0.00202423 23.11712891 -0.00404846 23.95019531 -0.00613403 C31.54246578 0.02476979 38.44789059 0.91537549 45.75 3.1328125 C48.47251402 3.84714545 51.20494914 4.52051356 53.9375 5.1953125 C54.98454102 5.45538086 54.98454102 5.45538086 56.05273438 5.72070312 C57.95161098 6.19226049 59.85079224 6.66259064 61.75 7.1328125 C63.08345638 7.46565326 64.41686955 7.79866869 65.75 8.1328125 C65.75 8.7928125 65.75 9.4528125 65.75 10.1328125 C68.39 10.4628125 71.03 10.7928125 73.75 11.1328125 C73.75 11.7928125 73.75 12.4528125 73.75 13.1328125 C76.06 13.4628125 78.37 13.7928125 80.75 14.1328125 C80.75 14.7928125 80.75 15.4528125 80.75 16.1328125 C81.636875 16.4215625 82.52375 16.7103125 83.4375 17.0078125 C86.25382424 17.96429998 89.00083156 19.00080196 91.75 20.1328125 C91.75 20.7928125 91.75 21.4528125 91.75 22.1328125 C93.4 22.4628125 95.05 22.7928125 96.75 23.1328125 C96.75 23.7928125 96.75 24.4528125 96.75 25.1328125 C98.73 25.7928125 100.71 26.4528125 102.75 27.1328125 C102.75 27.7928125 102.75 28.4528125 102.75 29.1328125 C104.07 29.4628125 105.39 29.7928125 106.75 30.1328125 C106.75 30.7928125 106.75 31.4528125 106.75 32.1328125 C107.513125 32.4215625 108.27625 32.7103125 109.0625 33.0078125 C111.75 34.1328125 111.75 34.1328125 114.75 36.1328125 C114.75 36.7928125 114.75 37.4528125 114.75 38.1328125 C115.3275 38.2153125 115.905 38.2978125 116.5 38.3828125 C119.4039336 39.35079037 120.78740604 40.81975534 122.75 43.1328125 C122.75 43.7928125 122.75 44.4528125 122.75 45.1328125 C123.74 45.4628125 124.73 45.7928125 125.75 46.1328125 C125.75 46.7928125 125.75 47.4528125 125.75 48.1328125 C126.74 48.4628125 127.73 48.7928125 128.75 49.1328125 C130.11639342 50.7724846 131.4449419 52.44391378 132.75 54.1328125 C133.575 54.9578125 134.4 55.7828125 135.25 56.6328125 C141.75 63.1328125 141.75 63.1328125 141.75 67.1328125 C142.74 67.4628125 143.73 67.7928125 144.75 68.1328125 C147.75 72.46614583 147.75 72.46614583 147.75 75.1328125 C148.41 75.4628125 149.07 75.7928125 149.75 76.1328125 C151.0390625 77.875 151.0390625 77.875 152.375 80.0078125 C152.82101562 80.70648438 153.26703125 81.40515625 153.7265625 82.125 C154.75 84.1328125 154.75 84.1328125 154.75 87.1328125 C155.41 87.1328125 156.07 87.1328125 156.75 87.1328125 C157.08 89.1128125 157.41 91.0928125 157.75 93.1328125 C158.41 93.1328125 159.07 93.1328125 159.75 93.1328125 C160.08 95.4428125 160.41 97.7528125 160.75 100.1328125 C161.41 100.1328125 162.07 100.1328125 162.75 100.1328125 C163.41 102.4428125 164.07 104.7528125 164.75 107.1328125 C165.08 107.1328125 165.41 107.1328125 165.75 107.1328125 C165.87117188 107.71289062 165.99234375 108.29296875 166.1171875 108.890625 C166.85245353 112.31809588 167.57420233 115.63838156 168.75 118.9453125 C170.05700035 123.11137612 170.64323324 127.30800773 171.28515625 131.62109375 C171.49185754 134.06354357 171.49185754 134.06354357 172.75 135.1328125 C174.1377533 143.61135534 173.90468735 152.31796138 173.88037109 160.88476562 C173.87500917 163.12897494 173.88034874 165.37298421 173.88671875 167.6171875 C173.89212685 178.06946474 173.75480642 188.05787333 170.75 198.1328125 C170.0096708 202.1215249 169.36882563 206.12361242 168.75 210.1328125 C168.09 210.1328125 167.43 210.1328125 166.75 210.1328125 C166.6571875 211.7415625 166.6571875 211.7415625 166.5625 213.3828125 C165.9531828 218.46651867 163.95622668 222.84193157 161.90625 227.49609375 C160.69007911 230.16026389 160.69007911 230.16026389 159.75 233.1328125 C159.09 233.1328125 158.43 233.1328125 157.75 233.1328125 C157.42 235.1128125 157.09 237.0928125 156.75 239.1328125 C156.09 239.1328125 155.43 239.1328125 154.75 239.1328125 C154.62625 240.1021875 154.5025 241.0715625 154.375 242.0703125 C154.065625 243.58625 154.065625 243.58625 153.75 245.1328125 C153.09 245.4628125 152.43 245.7928125 151.75 246.1328125 C150.72577008 248.12051295 149.73006519 250.12296867 148.75 252.1328125 C147.49331477 254.17558326 146.20061029 256.19658103 144.875 258.1953125 C143.88886719 259.69771484 143.88886719 259.69771484 142.8828125 261.23046875 C140.72177164 264.17122582 138.37149925 266.60200763 135.75 269.1328125 C134.41172696 270.79551537 133.07810215 272.46197431 131.75 274.1328125 C129.625 276.4453125 129.625 276.4453125 127.75 278.1328125 C127.09 278.1328125 126.43 278.1328125 125.75 278.1328125 C125.42 279.1228125 125.09 280.1128125 124.75 281.1328125 C124.09 281.1328125 123.43 281.1328125 122.75 281.1328125 C122.42 282.1228125 122.09 283.1128125 121.75 284.1328125 C119.7890625 285.8515625 119.7890625 285.8515625 117.375 287.6328125 C114.08154045 290.07151336 114.08154045 290.07151336 111.0859375 292.8515625 C109.75 294.1328125 109.75 294.1328125 107.75 294.1328125 C107.75 294.7928125 107.75 295.4528125 107.75 296.1328125 C106.43 296.4628125 105.11 296.7928125 103.75 297.1328125 C103.75 297.7928125 103.75 298.4528125 103.75 299.1328125 C101.44 299.7928125 99.13 300.4528125 96.75 301.1328125 C96.75 301.7928125 96.75 302.4528125 96.75 303.1328125 C95.1 303.4628125 93.45 303.7928125 91.75 304.1328125 C91.75 304.7928125 91.75 305.4528125 91.75 306.1328125 C90.1 306.4628125 88.45 306.7928125 86.75 307.1328125 C86.75 307.7928125 86.75 308.4528125 86.75 309.1328125 C84.77 309.4628125 82.79 309.7928125 80.75 310.1328125 C80.75 310.7928125 80.75 311.4528125 80.75 312.1328125 C79.38875 312.5659375 79.38875 312.5659375 78 313.0078125 C74.93719989 313.9772717 74.93719989 313.9772717 72.94921875 315.078125 C70.14543527 316.42274585 67.29325082 317.2506481 64.3125 318.1328125 C59.72107541 319.48834477 59.72107541 319.48834477 55.265625 321.21875 C52.12575649 322.3596339 49.26656538 322.55605096 45.9375 322.7578125 C44.19533203 322.86996094 44.19533203 322.86996094 42.41796875 322.984375 C41.53753906 323.03335937 40.65710938 323.08234375 39.75 323.1328125 C39.75 323.7928125 39.75 324.4528125 39.75 325.1328125 C30.93014354 326.27144151 22.18623447 326.28534968 13.30957031 326.26318359 C10.75579899 326.25782467 8.20220349 326.26315419 5.6484375 326.26953125 C-2.38536485 326.27246758 -10.26787972 326.16329114 -18.25 325.1328125 C-18.25 324.4728125 -18.25 323.8128125 -18.25 323.1328125 C-19.13042969 323.08382813 -20.01085937 323.03484375 -20.91796875 322.984375 C-22.07941406 322.90960937 -23.24085938 322.83484375 -24.4375 322.7578125 C-25.58605469 322.68820312 -26.73460937 322.61859375 -27.91796875 322.546875 C-31.1323736 322.14742961 -33.29608902 321.39562048 -36.25 320.1328125 C-39.87318107 319.00889816 -43.53345827 318.00672194 -47.1875 316.98828125 C-47.92226563 316.77816406 -48.65703125 316.56804687 -49.4140625 316.3515625 C-50.07873535 316.16529297 -50.7434082 315.97902344 -51.42822266 315.78710938 C-53.25 315.1328125 -53.25 315.1328125 -56.25 313.1328125 C-57.24 312.8028125 -58.23 312.4728125 -59.25 312.1328125 C-59.25 311.4728125 -59.25 310.8128125 -59.25 310.1328125 C-61.23 309.8028125 -63.21 309.4728125 -65.25 309.1328125 C-65.25 308.4728125 -65.25 307.8128125 -65.25 307.1328125 C-66.9 306.8028125 -68.55 306.4728125 -70.25 306.1328125 C-70.25 305.4728125 -70.25 304.8128125 -70.25 304.1328125 C-71.9 303.8028125 -73.55 303.4728125 -75.25 303.1328125 C-75.25 302.4728125 -75.25 301.8128125 -75.25 301.1328125 C-77.56 300.4728125 -79.87 299.8128125 -82.25 299.1328125 C-82.25 298.4728125 -82.25 297.8128125 -82.25 297.1328125 C-83.57 296.8028125 -84.89 296.4728125 -86.25 296.1328125 C-86.25 295.4728125 -86.25 294.8128125 -86.25 294.1328125 C-87.0234375 293.7925 -87.0234375 293.7925 -87.8125 293.4453125 C-92.79186976 290.7641134 -97.54305128 287.43287302 -101.25 283.1328125 C-101.25 282.4728125 -101.25 281.8128125 -101.25 281.1328125 C-102.24 280.8028125 -103.23 280.4728125 -104.25 280.1328125 C-104.25 279.4728125 -104.25 278.8128125 -104.25 278.1328125 C-105.24 277.8028125 -106.23 277.4728125 -107.25 277.1328125 C-108.61639342 275.4931404 -109.9449419 273.82171122 -111.25 272.1328125 C-112.3946875 271.0190625 -112.3946875 271.0190625 -113.5625 269.8828125 C-127.25 255.87699855 -127.25 255.87699855 -127.25 249.1328125 C-127.91 249.1328125 -128.57 249.1328125 -129.25 249.1328125 C-129.745 247.1528125 -129.745 247.1528125 -130.25 245.1328125 C-130.91 245.1328125 -131.57 245.1328125 -132.25 245.1328125 C-132.58 243.1528125 -132.91 241.1728125 -133.25 239.1328125 C-133.91 239.1328125 -134.57 239.1328125 -135.25 239.1328125 C-135.58 237.1528125 -135.91 235.1728125 -136.25 233.1328125 C-136.91 233.1328125 -137.57 233.1328125 -138.25 233.1328125 C-139.09378975 231.07456821 -139.92463622 229.01101464 -140.75 226.9453125 C-141.2140625 225.79675781 -141.678125 224.64820313 -142.15625 223.46484375 C-143.15805652 220.41291173 -143.48870804 218.30166178 -143.25 215.1328125 C-143.91 215.1328125 -144.57 215.1328125 -145.25 215.1328125 C-145.64832031 213.50472656 -145.64832031 213.50472656 -146.0546875 211.84375 C-146.41133082 210.39840603 -146.7681088 208.95309528 -147.125 207.5078125 C-147.29902344 206.79496094 -147.47304688 206.08210937 -147.65234375 205.34765625 C-147.91337891 204.29384766 -147.91337891 204.29384766 -148.1796875 203.21875 C-148.41534424 202.2604126 -148.41534424 202.2604126 -148.65576172 201.28271484 C-149.25115297 199.00961551 -149.25115297 199.00961551 -150.27096558 196.37930298 C-151.26727269 193.07553604 -151.50350059 190.47723651 -151.50878906 187.0390625 C-151.51509338 185.85763672 -151.52139771 184.67621094 -151.52789307 183.45898438 C-151.5238446 182.19634766 -151.51979614 180.93371094 -151.515625 179.6328125 C-151.51753845 178.32376953 -151.5194519 177.01472656 -151.52142334 175.66601562 C-151.52436287 172.90229544 -151.52011487 170.13870503 -151.51074219 167.375 C-151.49934823 163.84449939 -151.505914 160.31430295 -151.51788712 156.78381348 C-151.52687959 153.40012254 -151.52057102 150.01651206 -151.515625 146.6328125 C-151.52169769 144.73885742 -151.52169769 144.73885742 -151.52789307 142.80664062 C-151.52158875 141.62521484 -151.51528442 140.44378906 -151.50878906 139.2265625 C-151.50719788 138.19208984 -151.50560669 137.15761719 -151.50396729 136.09179688 C-151.22515199 132.84330716 -150.38034006 130.1813013 -149.25 127.1328125 C-148.87490862 125.77576455 -148.51588495 124.41407797 -148.1796875 123.046875 C-148.00566406 122.34433594 -147.83164062 121.64179687 -147.65234375 120.91796875 C-147.47832031 120.20511719 -147.30429687 119.49226562 -147.125 118.7578125 C-146.94324219 118.02175781 -146.76148438 117.28570313 -146.57421875 116.52734375 C-146.13064438 114.72970027 -145.69001734 112.93132996 -145.25 111.1328125 C-144.59 111.1328125 -143.93 111.1328125 -143.25 111.1328125 C-143.12625 109.4621875 -143.12625 109.4621875 -143 107.7578125 C-142.37080974 102.5176906 -140.36369129 97.93040016 -138.25 93.1328125 C-137.59 93.1328125 -136.93 93.1328125 -136.25 93.1328125 C-135.92 91.1528125 -135.59 89.1728125 -135.25 87.1328125 C-134.59 87.1328125 -133.93 87.1328125 -133.25 87.1328125 C-132.92 85.1528125 -132.59 83.1728125 -132.25 81.1328125 C-131.59 81.1328125 -130.93 81.1328125 -130.25 81.1328125 C-129.92 79.8128125 -129.59 78.4928125 -129.25 77.1328125 C-128.59 77.1328125 -127.93 77.1328125 -127.25 77.1328125 C-127.146875 76.5759375 -127.04375 76.0190625 -126.9375 75.4453125 C-126.10821592 72.6559024 -124.90700944 70.5189061 -123.25 68.1328125 C-122.59 68.1328125 -121.93 68.1328125 -121.25 68.1328125 C-120.92 66.8128125 -120.59 65.4928125 -120.25 64.1328125 C-119.59 64.1328125 -118.93 64.1328125 -118.25 64.1328125 C-118.04375 63.4521875 -117.8375 62.7715625 -117.625 62.0703125 C-114.85560881 56.15388586 -110.34749256 52.09752893 -105.25 48.1328125 C-104.59 47.1428125 -103.93 46.1528125 -103.25 45.1328125 C-102.59 45.1328125 -101.93 45.1328125 -101.25 45.1328125 C-100.92 44.1428125 -100.59 43.1528125 -100.25 42.1328125 C-98.25390625 40.30859375 -98.25390625 40.30859375 -95.8125 38.4453125 C-95.00941406 37.82269531 -94.20632813 37.20007813 -93.37890625 36.55859375 C-91.25 35.1328125 -91.25 35.1328125 -89.25 35.1328125 C-89.25 34.4728125 -89.25 33.8128125 -89.25 33.1328125 C-87.20955971 30.68428415 -85.10735229 29.47219639 -82.25 28.1328125 C-81.26 27.4728125 -80.27 26.8128125 -79.25 26.1328125 C-77.0625 25.5078125 -77.0625 25.5078125 -75.25 25.1328125 C-75.25 24.4728125 -75.25 23.8128125 -75.25 23.1328125 C-73.6 22.8028125 -71.95 22.4728125 -70.25 22.1328125 C-70.25 21.4728125 -70.25 20.8128125 -70.25 20.1328125 C-68.7937455 19.46161701 -67.33492133 18.79599443 -65.875 18.1328125 C-65.06289063 17.7615625 -64.25078125 17.3903125 -63.4140625 17.0078125 C-61.25 16.1328125 -61.25 16.1328125 -59.25 16.1328125 C-59.25 15.4728125 -59.25 14.8128125 -59.25 14.1328125 C-55.785 13.6378125 -55.785 13.6378125 -52.25 13.1328125 C-52.25 12.4728125 -52.25 11.8128125 -52.25 11.1328125 C-49.61 10.8028125 -46.97 10.4728125 -44.25 10.1328125 C-44.25 9.4728125 -44.25 8.8128125 -44.25 8.1328125 C-43.39277344 7.93945312 -42.53554688 7.74609375 -41.65234375 7.546875 C-34.61214077 5.94358187 -27.70979233 4.20220286 -20.8125 2.0703125 C-13.89124442 0.24892945 -7.11178478 -0.01780426 0 0 Z " fill="#4A4A49" transform="translate(532.25,406.8671875)"/>
</svg>
