<?xml version="1.0" encoding="UTF-8"?>
<svg version="1.1" xmlns="http://www.w3.org/2000/svg" width="2916" height="737">
<path d="M0 0 C3.44784017 2.89272262 6.76447571 5.87161228 10 9 C10.73734375 9.7115625 11.4746875 10.423125 12.234375 11.15625 C33.0481116 32.70806237 41.58540053 62.35343954 41.21484375 91.69140625 C40.31524513 122.45097409 26.3458391 148.58129521 4.92578125 170.08203125 C-16.66555518 190.31642602 -46.09197401 199.93183127 -75.359375 199.24609375 C-99.81385209 198.21432425 -124.6576902 189.4065297 -143 173 C-143.82757813 172.30261719 -144.65515625 171.60523438 -145.5078125 170.88671875 C-167.63181315 151.84113409 -180.81639 123.96316042 -183 95 C-184.56198455 67.693163 -177.11444383 38.30981555 -159.015625 17.25390625 C-158.35046875 16.51011719 -157.6853125 15.76632812 -157 15 C-156.31421875 14.18402344 -155.6284375 13.36804688 -154.921875 12.52734375 C-116.31339369 -32.40015158 -45.34314383 -37.77517261 0 0 Z " fill="#4A4A49" transform="translate(424,271)"/>
<path d="M0 0 C1.59263362 1.34321628 3.17608587 2.69739703 4.75 4.0625 C5.55824219 4.72636719 6.36648437 5.39023437 7.19921875 6.07421875 C27.76913993 23.54412041 40.68988496 49.36284047 43.75 76.0625 C46.00100911 112.08955971 36.20352024 141.13350948 12.796875 168.33203125 C-0.80293597 182.84835122 -19.27432924 192.76696397 -38.25 198.0625 C-39.32507813 198.3821875 -40.40015625 198.701875 -41.5078125 199.03125 C-58.87731849 203.38370162 -80.08012327 203.15980715 -97.25 198.0625 C-99.044375 197.56943359 -99.044375 197.56943359 -100.875 197.06640625 C-129.99224493 188.30090231 -153.07936408 168.13304563 -167.5625 141.625 C-171.36962394 134.37051736 -174.04520805 126.96300448 -176.25 119.0625 C-176.72953125 117.44988281 -176.72953125 117.44988281 -177.21875 115.8046875 C-181.57120162 98.43518151 -181.34730715 77.23237673 -176.25 60.0625 C-175.92128906 58.86625 -175.59257812 57.67 -175.25390625 56.4375 C-166.53330078 27.46939879 -146.46766148 4.27021141 -119.9609375 -10.0859375 C-82.21401252 -29.53499515 -33.66867873 -26.30854896 0 0 Z " fill="#4A4A49" transform="translate(179.25,21.9375)"/>
<path d="M0 0 C21.8590426 19.14743136 36.49747641 44.13777715 39.60595703 73.40673828 C41.30870271 105.93814249 34.48047585 135.3289001 12.60595703 160.40673828 C5.67096934 168.07218235 -1.53291427 174.99816787 -10.39404297 180.40673828 C-11.43947266 181.06158203 -12.48490234 181.71642578 -13.56201172 182.39111328 C-26.28838661 190.14855919 -39.68932936 194.91252104 -54.39404297 197.40673828 C-55.14427734 197.53822266 -55.89451172 197.66970703 -56.66748047 197.80517578 C-84.63073768 201.76931569 -114.48049709 194.47512646 -137.34936523 177.99169922 C-148.55900795 169.55253937 -159.04968171 159.40570771 -166.39404297 147.40673828 C-166.96251953 146.54435547 -167.53099609 145.68197266 -168.11669922 144.79345703 C-183.26269279 120.7263068 -188.05923807 89.22291385 -181.76904297 61.53173828 C-181.07111242 58.78907698 -180.26651643 56.09852474 -179.39404297 53.40673828 C-179.07258301 52.38435059 -179.07258301 52.38435059 -178.74462891 51.34130859 C-173.97871268 36.54407526 -166.62505848 24.15702113 -156.39404297 12.40673828 C-155.89388672 11.77380859 -155.39373047 11.14087891 -154.87841797 10.48876953 C-138.93245256 -9.53533071 -110.87729294 -22.18024569 -85.88623047 -25.21044922 C-54.91465039 -28.19784558 -23.92790443 -20.33171799 0 0 Z " fill="#D58C25" transform="translate(183.39404296875,271.59326171875)"/>
<path d="M0 0 C1.79630859 0.49306641 1.79630859 0.49306641 3.62890625 0.99609375 C31.41747239 9.37033318 55.16096358 28.42578835 69.1484375 53.84375 C83.97955529 81.77097317 87.21457427 112.54957523 78.05004883 142.8269043 C73.45350743 157.1490639 66.50428439 169.33488363 57 181 C56.38769531 181.77730469 55.77539062 182.55460938 55.14453125 183.35546875 C41.28133998 200.05632816 21.40368524 210.660332 1 217 C-0.15113281 217.36222656 -1.30226563 217.72445312 -2.48828125 218.09765625 C-31.71210877 225.48087942 -62.64081748 218.95173839 -88.23046875 204.06933594 C-112.87803409 189.17469794 -131.10254999 163.91729525 -138 136 C-144.95233437 104.7350239 -139.97708732 73.55270178 -122.75390625 46.37109375 C-105.47329209 20.37265672 -79.37566163 4.14566783 -49 -2 C-33.43730896 -4.94085581 -15.21346695 -4.46816449 0 0 Z " fill="#B51621" transform="translate(382,3)"/>
<path d="M0 0 C34.75750541 -0.81952509 66.16957509 11.53041095 97.04345703 26.12475586 C102.10973197 28.40832865 106.76298037 28.88348439 112.25390625 28.12109375 C115.79660117 26.316042 117.96667583 23.52501153 120.25390625 20.30859375 C122.25390625 18.12109375 122.25390625 18.12109375 125.31640625 17.49609375 C128.25390625 18.12109375 128.25390625 18.12109375 129.87548828 20.25097656 C131.44380329 23.51649397 131.86911569 26.06463315 132.24609375 29.66796875 C132.32052704 30.34422302 132.39496033 31.02047729 132.47164917 31.71722412 C132.64292775 33.28270825 132.80883922 34.84878504 132.97058105 36.4152832 C133.28712641 39.43835268 133.62712406 42.45828948 133.96972656 45.47851562 C134.65229383 51.51551973 135.31418733 57.55457394 135.96826172 63.59472656 C136.24283639 66.11976879 136.5201968 68.6445096 136.80029297 71.16894531 C137.21037241 74.86588081 137.61194432 78.56365636 138.01171875 82.26171875 C138.13668732 83.37452209 138.26165588 84.48732544 138.39041138 85.6338501 C140.06733243 101.39872057 140.06733243 101.39872057 139.25390625 107.12109375 C136.25390625 109.12109375 136.25390625 109.12109375 133.87890625 109.24609375 C127.97775166 106.7170275 125.26926667 98.31319159 122.51367188 92.81420898 C114.4618412 76.7952881 104.7700031 62.94153338 92.25390625 50.12109375 C91.52945312 49.33476562 90.805 48.5484375 90.05859375 47.73828125 C70.18068088 26.68676467 40.9935724 13.72610128 12.25390625 12.12109375 C11.56683594 12.07984375 10.87976562 12.03859375 10.171875 11.99609375 C-17.39416797 11.17780676 -44.66971876 23.35968031 -64.52392578 41.99243164 C-94.95602934 71.22472115 -110.80219652 115.1846759 -111.9609375 156.8359375 C-112.77902237 202.20355558 -100.24032382 243.92341468 -68.546875 277.24609375 C-47.30202228 299.17248194 -20.2126241 311.64380171 10.55029297 312.40649414 C37.61908179 312.69097015 58.1597791 302.6875897 77.62890625 284.05859375 C85.77357596 275.64633735 87.39867956 268.40181036 87.45703125 256.9453125 C87.46273132 256.06188675 87.4684314 255.178461 87.4743042 254.26826477 C87.4837264 252.39817489 87.49027709 250.52806861 87.49414062 248.65795898 C87.503745 245.85564315 87.53475202 243.05409399 87.56640625 240.25195312 C87.65910432 224.47213822 87.72770564 203.99808907 76.203125 191.71875 C65.68007662 183.09364622 53.60448107 181.76850721 40.515625 182.24609375 C37.07537861 182.11425197 34.45014685 181.35897211 31.25390625 180.12109375 C31.12890625 176.74609375 31.12890625 176.74609375 31.25390625 173.12109375 C33.62001456 170.75498544 34.10587001 170.86059472 37.32102966 170.80465698 C38.17351288 170.78507935 39.02599609 170.76550171 39.90431213 170.74533081 C40.84266403 170.73381989 41.78101593 170.72230896 42.74780273 170.71044922 C43.73550659 170.69065002 44.72321045 170.67085083 45.74084473 170.65045166 C49.03546405 170.58688987 52.33013708 170.53747131 55.625 170.48828125 C57.93727471 170.44706448 60.24953568 170.40506971 62.56178284 170.36233521 C67.44027729 170.27417033 72.31882206 170.19244109 77.19750977 170.11572266 C83.34290595 170.01902342 89.48804496 169.91153765 95.63318443 169.79981613 C110.50621322 169.52998127 125.37950063 169.30013558 140.25390625 169.12109375 C141.23024269 169.10931595 142.20657913 169.09753815 143.21250153 169.08540344 C148.41665637 169.02507648 153.62060689 168.97765601 158.82505989 168.95340347 C160.32611179 168.94549289 161.82715077 168.93440381 163.32815361 168.91991806 C165.3372749 168.90173541 167.34651139 168.89790151 169.35571289 168.89501953 C170.45790665 168.89011505 171.5601004 168.88521057 172.69569397 168.88015747 C175.25390625 169.12109375 175.25390625 169.12109375 177.25390625 171.12109375 C177.56640625 174.62109375 177.56640625 174.62109375 177.25390625 178.12109375 C174.46752042 179.97868431 173.26758242 180.47786366 170.12109375 181.05078125 C169.31905518 181.20401855 168.5170166 181.35725586 167.69067383 181.51513672 C166.42259888 181.75321045 166.42259888 181.75321045 165.12890625 181.99609375 C155.30471324 183.95308896 155.30471324 183.95308896 146.25390625 188.12109375 C145.52816406 188.55164063 144.80242187 188.9821875 144.0546875 189.42578125 C138.83899746 192.89042275 136.55358574 196.03052794 135.25390625 202.12109375 C134.28941347 210.17854022 134.08837316 218.25329425 134.0078125 226.359375 C133.97487685 228.66732154 133.94166515 230.97526416 133.90820312 233.28320312 C133.86094444 236.85698828 133.81643747 240.4307572 133.77709961 244.00463867 C133.68841685 251.71366663 133.54215629 259.4167335 133.25390625 267.12109375 C133.22351257 267.95396912 133.1931189 268.78684448 133.1618042 269.6449585 C132.65648762 280.32596938 132.65648762 280.32596938 129.65405273 284.16870117 C127.60366673 285.80194756 125.59690176 286.9521306 123.25390625 288.12109375 C121.83893732 288.97636677 120.42488519 289.83315826 119.01171875 290.69140625 C117.4727017 291.55242751 115.928117 292.40355167 114.37890625 293.24609375 C113.10273437 293.9417041 113.10273437 293.9417041 111.80078125 294.65136719 C60.39785464 322.21232032 4.82176099 335.5123035 -52.48242188 318.8125 C-76.08079883 311.60471273 -97.38068304 299.53865787 -115.74609375 283.12109375 C-117.20391071 281.87049157 -118.66216872 280.62040311 -120.12109375 279.37109375 C-121.3347316 278.2937063 -122.5434488 277.2107385 -123.74609375 276.12109375 C-124.29136719 275.62996094 -124.83664062 275.13882812 -125.3984375 274.6328125 C-152.1883485 249.22967336 -166.68737626 211.40485705 -167.8125 174.97070312 C-168.78465429 135.72807494 -158.89963501 98.45515315 -134.74609375 67.12109375 C-134.02808594 66.17878906 -133.31007813 65.23648438 -132.5703125 64.265625 C-103.23217332 27.09683075 -58.28899433 6.24518805 -11.88671875 0.65625 C-7.92473019 0.31028688 -3.97155933 0.17513277 0 0 Z " fill="#4A4A49" transform="translate(1766.74609375,83.87890625)"/>
<path d="M0 0 C1.08539062 -0.01160156 2.17078125 -0.02320313 3.2890625 -0.03515625 C19.79992253 0.02395184 34.88978731 5.48402309 46.8203125 17.0625 C68.55791232 40.12461308 67.32915198 71.34627228 67.20278788 101.0478735 C67.19007469 104.55381896 67.18909414 108.05976991 67.18673706 111.56573486 C67.18058158 118.17017932 67.16425334 124.77455561 67.14403808 131.37897038 C67.12149153 138.9125339 67.11063906 146.44610109 67.10064721 153.97969007 C67.07988001 169.44483252 67.04482276 184.90990739 67 200.375 C68.02154175 200.35143433 68.02154175 200.35143433 69.0637207 200.32739258 C72.14656281 200.26506778 75.22927244 200.22601742 78.3125 200.1875 C79.38435547 200.16236328 80.45621094 200.13722656 81.56054688 200.11132812 C82.58857422 200.10166016 83.61660156 200.09199219 84.67578125 200.08203125 C86.0975769 200.05846558 86.0975769 200.05846558 87.5480957 200.03442383 C90 200.375 90 200.375 91.77026367 201.70581055 C94.64838691 205.61244715 94 208.26720933 94 213.375 C57.37 213.375 20.74 213.375 -17 213.375 C-17 208.755 -17 204.135 -17 199.375 C-14.958125 199.148125 -12.91625 198.92125 -10.8125 198.6875 C-6.7246922 198.03948704 -4.35506135 197.60934049 -0.875 195.3125 C3.96264069 187.73352958 4.43741458 180.18391271 4.38818359 171.3762207 C4.39344055 170.20745895 4.39869751 169.0386972 4.40411377 167.83451843 C4.41726301 163.98980137 4.40859036 160.14550219 4.3984375 156.30078125 C4.39910702 153.61190968 4.40336984 150.92304539 4.40713501 148.23417664 C4.4125797 142.60309379 4.40543887 136.97212929 4.39111328 131.34106445 C4.37482888 124.86600179 4.38004963 118.39122321 4.3965925 111.91616756 C4.41029193 106.32682945 4.41208492 100.73757595 4.40427649 95.14822644 C4.39964088 91.82341984 4.40006721 88.49885103 4.40888596 85.17403603 C5.25677557 57.36411615 5.25677557 57.36411615 -6.9921875 33.3671875 C-14.03800568 27.86347292 -21.13762116 26.30844897 -30 26.375 C-39.90644176 27.86315473 -49.15604007 33.28187105 -55.41015625 41.06640625 C-69.99996376 62.25209725 -68.14932391 87.48736938 -68.31640625 111.99609375 C-68.33701538 114.55298671 -68.35801278 117.10987656 -68.37937927 119.66676331 C-68.4286132 125.66925002 -68.47398139 131.67175349 -68.51740164 137.67428404 C-68.56713201 144.51854462 -68.62191497 151.362762 -68.67708123 158.20698059 C-68.79026506 172.26294659 -68.89723746 186.31895421 -69 200.375 C-68.44538086 200.34881592 -67.89076172 200.32263184 -67.31933594 200.2956543 C-64.79651431 200.19145997 -62.27414511 200.12661109 -59.75 200.0625 C-58.44095703 199.9996582 -58.44095703 199.9996582 -57.10546875 199.93554688 C-50.72512928 199.81378467 -50.72512928 199.81378467 -47.390625 202.39453125 C-46 205.375 -46 205.375 -46 213.375 C-82.96 213.375 -119.92 213.375 -158 213.375 C-158 208.755 -158 204.135 -158 199.375 C-155.855 199.148125 -153.71 198.92125 -151.5 198.6875 C-145.26334526 197.76775092 -140.59779306 196.7913388 -136 192.375 C-130.77694753 184.91248258 -131.42271155 176.08840108 -131.45410156 167.39038086 C-131.44535552 165.78315231 -131.43486616 164.17593245 -131.42277527 162.56872559 C-131.39502068 158.22841797 -131.39150824 153.88839595 -131.39249516 149.5480125 C-131.38935695 145.00358806 -131.36371991 140.45929054 -131.34051514 135.91493225 C-131.30002095 127.31977835 -131.27962992 118.7247002 -131.26654124 110.12946564 C-131.25064887 100.33977444 -131.21222383 90.55021172 -131.17194796 80.7605952 C-131.08963911 60.63210289 -131.03628992 40.50362336 -131 20.375 C-139.91 20.375 -148.82 20.375 -158 20.375 C-158 16.085 -158 11.795 -158 7.375 C-129.62 7.375 -101.24 7.375 -72 7.375 C-71.01 21.235 -71.01 21.235 -70 35.375 C-69.505 37.85 -69.505 37.85 -69 40.375 C-68.69449219 39.86453125 -68.38898438 39.3540625 -68.07421875 38.828125 C-56.04306164 19.71383595 -38.27041025 6.20989541 -16.22070312 0.95947266 C-10.80779181 -0.02282796 -5.48715537 -0.0586513 0 0 Z " fill="#4A4A49" transform="translate(884,176.625)"/>
<path d="M0 0 C47.52 0 95.04 0 144 0 C144 4.29 144 8.58 144 13 C131.46 13 118.92 13 106 13 C106 98.8 106 184.6 106 273 C114.91 273 123.82 273 133 273 C138.79259469 275.89629734 140.11544144 276.65822488 143 282 C143.33 283.65 143.66 285.3 144 287 C96.48 287 48.96 287 0 287 C0 282.38 0 277.76 0 273 C12.54 273 25.08 273 38 273 C38 187.2 38 101.4 38 13 C25.46 13 12.92 13 0 13 C0 8.71 0 4.42 0 0 Z " fill="#4A4A49" transform="translate(564,103)"/>
<path d="M0 0 C1.15527695 0.00081573 1.15527695 0.00081573 2.33389282 0.00164795 C29.25881662 0.08888187 56.83871083 5.87853841 76.88671875 25.171875 C77.60472656 25.89890625 78.32273437 26.6259375 79.0625 27.375 C80.03123047 28.31085938 80.03123047 28.31085938 81.01953125 29.265625 C91.90705612 40.55639153 95.42106207 56.42760648 95.2109375 71.640625 C94.70906188 80.88570221 91.74649933 88.2096044 84.875 94.5625 C53.72632344 119.22743917 -3.01121996 110.0113325 -39.9375 108.375 C-41.02203428 135.32768518 -37.91207066 167.86415678 -20.0625 189.5 C-11.28691141 198.44631988 -0.48008214 202.35369419 11.9375 202.75 C30.67120637 202.18749968 48.14843829 194.37753799 61.86328125 181.74609375 C67.96437176 175.16818621 72.84273039 167.26413449 77.0625 159.375 C78.50043392 159.68549726 79.9378318 159.9984776 81.375 160.3125 C82.17550781 160.48652344 82.97601562 160.66054688 83.80078125 160.83984375 C86.0625 161.375 86.0625 161.375 89.0625 162.375 C87.34452927 175.90155118 76.38147738 189.84622164 66.0625 198.375 C39.25120548 217.60002739 8.18451322 221.52898446 -23.9375 216.375 C-48.90475531 211.92050248 -72.99623603 198.68659245 -88.3203125 178.1875 C-107.32901983 150.53230468 -111.12320863 115.96542896 -105.9375 83.375 C-103.58205945 70.71356233 -99.31186882 59.53328243 -92.9375 48.375 C-92.3703125 47.36824219 -91.803125 46.36148438 -91.21875 45.32421875 C-78.39822176 23.94659265 -57.01831826 9.7431075 -33.23046875 3.34765625 C-22.14421248 0.72172065 -11.34945328 -0.03016972 0 0 Z M-26.625 29 C-38.33613548 46.72640052 -41.7500966 72.47320977 -40.9375 93.375 C-29.94531177 94.1591561 -18.94954509 94.52536303 -7.93069458 94.60717773 C-5.91323983 94.62466847 -3.89593033 94.65691853 -1.87866211 94.68945312 C7.65136844 94.72328398 17.424468 94.30983297 24.58984375 87.24609375 C33.02529687 76.52836949 31.11811441 59.85376799 29.625 47.04296875 C27.87898097 36.62141765 23.8692902 23.89750405 14.9375 17.41796875 C-1.17977589 8.45273404 -16.15178737 15.09590737 -26.625 29 Z " fill="#4A4A49" transform="translate(1322.9375,176.625)"/>
<path d="M0 0 C1.52265976 -0.01429802 1.52265976 -0.01429802 3.07608032 -0.02888489 C4.17809784 -0.02797348 5.28011536 -0.02706207 6.41552734 -0.02612305 C7.5479184 -0.03040817 8.68030945 -0.0346933 9.84701538 -0.03910828 C12.24956595 -0.04486194 14.65213394 -0.04534426 17.0546875 -0.04101562 C20.71563939 -0.03787255 24.37577022 -0.06124392 28.03662109 -0.08666992 C30.37125549 -0.08894461 32.70589206 -0.08964562 35.04052734 -0.08862305 C36.13039948 -0.09783279 37.22027161 -0.10704254 38.34317017 -0.11653137 C44.63080991 -0.0786555 49.43583691 0.51756451 55.12646484 3.2746582 C56.58730391 6.19633634 56.23865048 8.76679926 56.2199707 12.0246582 C56.21457354 13.03338989 56.21457354 13.03338989 56.20906734 14.0625 C56.16550831 19.5718769 55.98835642 25.07332285 55.77391052 30.57861328 C54.92466465 52.44613022 55.00922368 74.31202233 55.05780029 96.19250488 C55.06823567 101.40998922 55.07264009 106.62747883 55.07763672 111.8449707 C55.08819694 121.98821315 55.10514458 132.13143304 55.12646484 142.2746582 C55.8265844 141.55978745 55.8265844 141.55978745 56.54084778 140.83047485 C57.1605394 140.20313446 57.78023102 139.57579407 58.41870117 138.92944336 C59.02982254 138.30848785 59.64094391 137.68753235 60.27058411 137.04776001 C75.70958257 122.29739619 98.07624013 116.70143642 118.83349609 117.05981445 C142.65843319 117.93060103 163.93610451 129.15764901 180.07568359 146.3449707 C199.26224029 167.67034583 207.97860149 194.20029736 207.04492188 222.76977539 C205.37734177 254.00788766 193.43132838 282.2851692 171.12646484 304.2746582 C170.37751953 305.03391602 169.62857422 305.79317383 168.85693359 306.57543945 C152.92226343 321.80058812 131.06854478 327.6980388 109.50146484 327.5871582 C108.36281982 327.58224365 107.2241748 327.5773291 106.05102539 327.57226562 C82.6957736 327.2501584 62.02698788 320.50810055 43.05224609 306.6574707 C40.68999576 304.96125038 39.19420954 304.28820714 36.31396484 303.7121582 C33.16455207 303.93731399 33.16455207 303.93731399 31.76318359 305.7434082 C28.98585936 310.07706582 26.90714196 314.74951576 24.92333984 319.48950195 C24.12646484 321.2746582 24.12646484 321.2746582 23.12646484 322.2746582 C20.68896484 322.5246582 20.68896484 322.5246582 18.12646484 322.2746582 C16.03212222 319.13314426 15.88041492 318.46839984 15.91577148 314.9019928 C15.91991562 314.01437224 15.92405975 313.12675169 15.92832947 312.21223354 C15.9434407 311.24420331 15.95855194 310.27617308 15.97412109 309.27880859 C15.98242447 308.25752145 15.99072784 307.2362343 15.99928284 306.18399906 C16.0300054 302.88063536 16.07660184 299.57778476 16.12646484 296.2746582 C16.14054382 295.22101452 16.1546228 294.16737083 16.16912842 293.08179855 C16.25978949 286.36115047 16.37417484 279.64107441 16.49677086 272.9209404 C16.61671581 266.29358792 16.72731628 259.66607629 16.83862305 253.03857422 C16.85627588 251.99114375 16.85627588 251.99114375 16.87428534 250.92255306 C17.76058574 198.28888398 18.36649723 145.65871413 18.4286679 93.01718515 C18.43530014 87.82717398 18.44959092 82.63722013 18.46704102 77.44723511 C18.49008567 70.46757228 18.4960576 63.48807084 18.4899807 56.50837326 C18.48982612 53.94793625 18.49454997 51.3874936 18.50451088 48.82707596 C18.5168182 45.3316405 18.51029826 41.83673536 18.4987793 38.34130859 C18.50642807 37.32885795 18.51407684 36.3164073 18.5219574 35.27327633 C18.46775446 27.99077951 17.66097646 21.56314784 12.31396484 16.1496582 C7.82410717 12.57134831 2.38037772 10.80371077 -2.95947266 8.86450195 C-5.87353516 7.2746582 -5.87353516 7.2746582 -6.91259766 4.71606445 C-6.83623756 -0.05644132 -4.00948584 0.02063583 0 0 Z M68.12646484 146.2746582 C48.37274675 171.71148964 50.96821644 212.23145406 50.81396484 242.7746582 C50.80433716 243.8557486 50.79470947 244.93683899 50.78479004 246.0506897 C50.42692956 275.69510489 50.42692956 275.69510489 64.81396484 300.5246582 C76.68461721 312.03893774 90.49733357 316.95502521 106.984375 316.74731445 C121.59490213 316.13001549 133.64386889 308.90423593 143.45458984 298.3840332 C165.12456002 273.89978119 167.48498636 240.87819548 166.00195312 209.65307617 C164.40760515 184.80060408 156.45195317 159.82887177 138.12646484 142.2746582 C117.20636903 125.44447731 86.60336922 125.77240084 68.12646484 146.2746582 Z " fill="#4A4A49" transform="translate(2354.87353515625,81.725341796875)"/>
<path d="M0 0 C32.67 0 65.34 0 99 0 C99 98.34 99 196.68 99 298 C109.23 298 119.46 298 130 298 C134 303 134 303 135 311 C90.45 311 45.9 311 0 311 C0 298 0 298 1 297 C2.75562878 296.88591582 4.5120301 296.77866885 6.27001953 296.70996094 C16.28947875 296.317218 25.80387502 295.72267071 33 288 C37.06929761 280.2823666 37.14990984 272.84302665 37.15821838 264.3319397 C37.16315636 263.25692243 37.16809434 262.18190516 37.17318195 261.07431161 C37.18853971 257.47223142 37.19691295 253.87016903 37.20532227 250.26806641 C37.21490214 247.68593184 37.22491228 245.10379884 37.23532104 242.52166748 C37.25705093 236.96254846 37.27520813 231.40342702 37.29092598 225.84428787 C37.31365643 217.80674625 37.34179482 209.76923068 37.37124526 201.73171119 C37.41888228 188.69078122 37.46215698 175.64984058 37.50268555 162.60888672 C37.54206028 149.94221161 37.58349124 137.27554597 37.62768555 124.60888672 C37.63040982 123.82787022 37.63313409 123.04685372 37.63594092 122.24217005 C37.64962072 118.32396707 37.66334093 114.40576423 37.67708123 110.48756146 C37.79098489 77.99172702 37.89753847 45.49587254 38 13 C25.46 13 12.92 13 0 13 C0 8.71 0 4.42 0 0 Z " fill="#4A4A49" transform="translate(1435,79)"/>
<path d="M0 0 C2.24228292 0.00314554 4.48322206 -0.02034044 6.7253418 -0.0456543 C20.18676165 -0.10546071 33.48937982 1.55204628 46.26245117 6.00317383 C47.00382324 6.25881104 47.74519531 6.51444824 48.5090332 6.77783203 C63.7825443 12.28187389 77.90658533 21.5030451 85.98901367 35.92895508 C89.79151912 44.28626021 90.74565815 53.37106526 88.23510742 62.30395508 C85.55654849 68.24728953 81.91793073 72.37964927 76.07495117 75.31567383 C63.2567666 80.08396597 51.17541874 79.34088064 38.82495117 73.87817383 C30.58302839 66.19820032 28.74010571 54.70067477 26.94995117 44.06567383 C24.95314797 29.95452771 24.95314797 29.95452771 17.19995117 18.44067383 C9.81887773 13.42154389 1.68118503 12.78192756 -6.98754883 13.94067383 C-15.14950339 15.515061 -20.97549597 19.29210857 -26.20239258 25.74536133 C-47.74499605 57.88829349 -45.201122 112.37490488 -39.92504883 149.31567383 C-39.82853027 150.02626953 -39.73201172 150.73686523 -39.63256836 151.46899414 C-37.66455479 165.39697194 -33.98954353 179.98574191 -23.92504883 190.31567383 C-23.36946289 190.88672852 -22.81387695 191.4577832 -22.24145508 192.04614258 C-12.70225277 200.96849116 -0.24122194 202.79364674 12.37573242 202.56176758 C33.26200436 201.17229014 52.27595549 193.12175306 66.81323242 177.97583008 C71.38014013 172.60438941 75.00916564 166.65359584 78.07495117 160.31567383 C80.22294057 160.76379401 82.36831678 161.22445731 84.51245117 161.69067383 C85.70741211 161.9459082 86.90237305 162.20114258 88.13354492 162.46411133 C89.10420898 162.74512695 90.07487305 163.02614258 91.07495117 163.31567383 C91.40495117 163.97567383 91.73495117 164.63567383 92.07495117 165.31567383 C91.18075661 167.57086284 90.23432226 169.66052789 89.13745117 171.81567383 C88.81897217 172.44425293 88.50049316 173.07283203 88.17236328 173.72045898 C85.13759691 179.51242613 81.45574797 184.45851854 77.07495117 189.31567383 C76.48327148 190.00016602 75.8915918 190.6846582 75.28198242 191.38989258 C59.20882641 208.83389345 34.11191387 216.91364409 11.00463867 218.22583008 C10.0378418 218.25547852 9.07104492 218.28512695 8.07495117 218.31567383 C6.9431543 218.35563477 5.81135742 218.3955957 4.64526367 218.43676758 C-28.3701549 219.03006791 -59.0507984 210.21853485 -83.30004883 187.04614258 C-103.09556206 166.32271466 -109.15148635 138.73421133 -109.17504883 110.87817383 C-109.17572357 110.16291534 -109.17639832 109.44765686 -109.17709351 108.71072388 C-109.16097642 97.9606278 -108.73069605 87.75449891 -105.92504883 77.31567383 C-105.59633789 76.07946289 -105.26762695 74.84325195 -104.92895508 73.56958008 C-100.5289277 58.93834718 -93.33308697 45.53656384 -82.92504883 34.31567383 C-82.15547852 33.46618164 -81.3859082 32.61668945 -80.59301758 31.74145508 C-59.47895973 9.467659 -30.10660979 -0.08785026 0 0 Z " fill="#4A4A49" transform="translate(1107.925048828125,176.684326171875)"/>
<path d="M0 0 C9.50811248 9.07275934 10.18274961 22.59842702 10.625 35.0625 C10.68578735 36.68998169 10.68578735 36.68998169 10.74780273 38.3503418 C11.12124116 51.28888505 10.68858812 64.21383659 10.35107422 77.14892578 C6.26540001 126.45674806 6.26540001 126.45674806 18.36328125 172.50390625 C21.13069068 175.35371993 24.08088631 176.94982379 28.07739258 177.3269043 C30.45447126 177.34822901 32.81255266 177.28900985 35.1875 177.1875 C38.12374514 177.07832 40.99521926 177.05759715 43.9375 177.125 C45.9375 179.125 45.9375 179.125 46.3125 181.5625 C45.9375 184.125 45.9375 184.125 44.29296875 185.68359375 C41.50345733 187.3906082 39.06680997 188.04415624 35.875 188.75 C34.83214844 188.98976563 33.78929688 189.22953125 32.71484375 189.4765625 C23.27126659 191.09769364 13.81465087 191.33246681 4.25 191.375 C3.07888672 191.395625 1.90777344 191.41625 0.70117188 191.4375 C-7.29440639 191.47357706 -13.09844123 190.76770585 -19.875 186.25 C-24.8237064 179.18041943 -25.34784601 169.55791712 -26.0625 161.125 C-26.59617187 161.82625 -27.12984375 162.5275 -27.6796875 163.25 C-39.43771682 178.22216191 -55.27907 188.33269933 -74.17578125 191.67578125 C-93.45771116 193.90434601 -111.9741095 192.61546248 -127.8125 180.4375 C-136.17556458 172.7378516 -140.93058135 162.06414501 -141.49609375 150.79296875 C-141.51963079 148.966297 -141.52043983 147.13920903 -141.5 145.3125 C-141.48755249 143.86738037 -141.48755249 143.86738037 -141.47485352 142.39306641 C-141.11591865 127.19517653 -135.10701613 112.8087656 -124.0625 102.125 C-111.10006355 89.8465112 -90.83550957 85.05034941 -74.46972656 79.32568359 C-48.07198484 71.61200062 -48.07198484 71.61200062 -28.3125 54.625 C-27.90515625 53.8721875 -27.4978125 53.119375 -27.078125 52.34375 C-22.38745339 42.09643663 -24.1029206 27.13706661 -27.80078125 16.92578125 C-32.06196922 7.46673551 -37.75850113 0.52177972 -47.5625 -3.25 C-57.6920287 -6.28378115 -69.34029583 -6.40639255 -79.0625 -1.875 C-87.97333068 3.20064557 -91.05856713 12.25983442 -93.69921875 21.7265625 C-94.48195774 24.6382166 -95.23242579 27.55150215 -95.93359375 30.48388672 C-97.25186342 35.84989574 -98.66370717 39.74922623 -102.0625 44.125 C-102.619375 44.8675 -103.17625 45.61 -103.75 46.375 C-107.25741593 49.02926071 -110.68737473 49.90799379 -115.0625 50.125 C-121.21781072 49.0774998 -126.44102512 46.60880214 -130.25 41.546875 C-134.32488794 34.81199077 -133.93626787 27.15696678 -132.625 19.60546875 C-129.39796111 8.08897373 -119.75072274 0.09258976 -109.8359375 -5.7890625 C-78.57655933 -22.37135115 -28.22430157 -23.11353897 0 0 Z M-30.4375 70.9375 C-39.7013514 78.58347308 -50.38985278 84.03970889 -60.90234375 89.765625 C-69.38210987 94.39127188 -77.52411083 99.02477728 -85.0625 105.125 C-85.94550781 105.83269531 -86.82851562 106.54039062 -87.73828125 107.26953125 C-97.87273872 115.84253157 -102.7588 125.27894028 -104.34375 138.46484375 C-104.78606664 148.65655632 -101.65357541 158.37341921 -95.0625 166.125 C-89.48555585 172.0483382 -84.19969282 175.65678345 -76.01953125 176.40234375 C-61.3289835 176.83289908 -50.04305319 171.60210268 -39.421875 161.640625 C-24.36799424 145.58979849 -23.73302737 125.5106085 -23.85668945 104.7434082 C-23.87497705 101.56648726 -23.87719832 98.38985885 -23.87695312 95.21289062 C-23.88186908 93.16145586 -23.88769774 91.11002303 -23.89453125 89.05859375 C-23.89564407 88.12494492 -23.8967569 87.19129608 -23.89790344 86.22935486 C-23.94328507 79.81736367 -24.39127515 73.50113079 -25.0625 67.125 C-27.07247566 67.125 -29.04633912 69.71541867 -30.4375 70.9375 Z " fill="#4A4A49" transform="translate(2740.0625,215.875)"/>
<path d="M0 0 C30.51166808 -0.87475698 55.42626204 9.16370485 77.9296875 29.48828125 C97.1267801 47.74173796 106.26462829 72.0029384 107.34765625 98.15625 C107.87234647 127.48584384 97.39147794 154.78422325 77.34765625 176.15625 C76.85330078 176.68766602 76.35894531 177.21908203 75.84960938 177.76660156 C69.58735531 184.43586185 63.14715879 190.30108971 55.34765625 195.15625 C54.45949219 195.73890625 53.57132813 196.3215625 52.65625 196.921875 C46.9276789 200.50710317 41.12563836 203.19699633 34.78515625 205.46875 C33.77763306 205.83238647 33.77763306 205.83238647 32.74975586 206.20336914 C22.48224212 209.69745874 12.395344 210.51944337 1.59765625 210.46875 C0.36136475 210.46383545 -0.87492676 210.4589209 -2.14868164 210.45385742 C-26.1094881 210.14644527 -46.54795031 201.67897001 -64.65234375 186.15625 C-65.56886719 185.43888672 -65.56886719 185.43888672 -66.50390625 184.70703125 C-85.51739442 169.55701442 -97.05580883 144.49881654 -99.94580078 120.74414062 C-102.69898427 92.51149542 -96.50980733 64.65871856 -78.65234375 42.15625 C-78.22969238 41.62290039 -77.80704102 41.08955078 -77.37158203 40.54003906 C-59.70267245 18.48618951 -36.45472418 4.34669843 -8.21484375 0.40625 C-5.47912013 0.19938999 -2.74129244 0.11727454 0 0 Z M-35.9765625 28.20703125 C-57.16724591 52.85540192 -62.48815867 85.6174818 -60.65234375 117.15625 C-58.34931921 145.04513424 -48.01985731 171.41178293 -26.65234375 190.15625 C-14.85771262 198.8303285 -2.04137453 201.1437325 12.34765625 200.15625 C28.00794907 197.24189057 40.79559949 187.59645167 49.86328125 174.6875 C52.16627827 171.2550315 54.27446858 167.73186922 56.34765625 164.15625 C56.84007813 163.32609375 57.3325 162.4959375 57.83984375 161.640625 C60.60213801 156.59643548 62.37356099 151.32689236 64.03515625 145.84375 C64.23786133 145.18076904 64.44056641 144.51778809 64.64941406 143.8347168 C67.96711365 132.25461593 68.75804619 120.59076042 68.72265625 108.59375 C68.72211243 107.89514862 68.7215686 107.19654724 68.7210083 106.47677612 C68.67893964 94.67079512 67.66773101 83.52591599 64.34765625 72.15625 C64.13866699 71.4245459 63.92967773 70.6928418 63.71435547 69.93896484 C59.25286627 54.82337258 51.9052047 40.91351986 41.34765625 29.15625 C40.785625 28.51300781 40.22359375 27.86976563 39.64453125 27.20703125 C30.89877814 17.78695606 17.94464555 11.73156816 5.1171875 11.03515625 C-10.72213451 10.61768575 -25.0652885 16.64358915 -35.9765625 28.20703125 Z " fill="#4A4A49" transform="translate(2208.65234375,197.84375)"/>
<path d="M0 0 C0.76686345 17.13447648 1.15731432 34.23343262 1.18945312 51.3840332 C1.19742584 53.79711542 1.20581599 56.2101963 1.21458435 58.62327576 C1.23243408 63.76074633 1.24752053 68.89821434 1.26036072 74.03569984 C1.27910264 81.48593802 1.30357039 88.93614675 1.32973462 96.3863621 C1.37224688 108.51252958 1.41142251 120.63870506 1.44775391 132.76489258 C1.45099811 133.84708394 1.45099811 133.84708394 1.45430785 134.95113774 C1.47182965 140.80480839 1.48918448 146.65847953 1.50651073 152.51215076 C1.52168289 157.63708836 1.53691472 162.76202577 1.55224609 167.88696289 C1.5554844 168.97006883 1.5554844 168.97006883 1.55878812 170.0750557 C1.59506502 182.17051467 1.63502057 194.26595888 1.67754889 206.36139745 C1.70575595 214.43746331 1.72933516 222.51352295 1.74947357 230.58961356 C1.76298133 235.63069001 1.78038403 240.67174787 1.79878426 245.71280861 C1.80645417 248.02770002 1.81256032 250.34259731 1.81687737 252.65749741 C1.83815874 263.65115482 1.94131818 274.62836364 2.42980957 285.61247253 C2.48364784 286.88535377 2.48364784 286.88535377 2.53857374 288.18394977 C2.9818886 297.01810205 3.97054172 306.10919053 10 313 C17.07902481 319.04306996 26.84976383 320.12657848 35.78515625 321.47265625 C38 322 38 322 40 324 C40.3125 326.5 40.3125 326.5 40 329 C36.04216037 331.63855975 32.91923937 331.02613322 28.375 330.6875 C27.62476562 330.63916016 26.87453125 330.59082031 26.1015625 330.54101562 C22.22345663 330.29071304 18.34690201 330.02582623 14.47143555 329.73730469 C2.47613771 328.89437761 -9.50163187 328.84710618 -21.52270508 328.86962891 C-24.95593604 328.875029 -28.38903841 328.86963049 -31.82226562 328.86328125 C-34.03645862 328.8639415 -36.25065153 328.86522155 -38.46484375 328.8671875 C-39.47546371 328.86516327 -40.48608368 328.86313904 -41.52732849 328.86105347 C-47.02696158 328.87900991 -52.41142342 329.14405029 -57.87661743 329.76951599 C-60.7331256 330.07957762 -63.56541606 330.16842906 -66.4375 330.1875 C-67.42621094 330.20167969 -68.41492187 330.21585937 -69.43359375 330.23046875 C-72 330 -72 330 -75 328 C-75.3125 325.5 -75.3125 325.5 -75 323 C-72.71088749 320.71088749 -72.03314266 320.66822998 -68.9296875 320.2890625 C-68.115 320.17820312 -67.3003125 320.06734375 -66.4609375 319.953125 C-64.76101422 319.73742477 -63.0604966 319.52634897 -61.359375 319.3203125 C-53.36961259 318.21827631 -46.40089463 315.76501101 -41.3125 309.2109375 C-31.98953482 293.50618068 -33.71317113 271.47272967 -33.84765625 253.91015625 C-33.85687078 251.71062038 -33.86522807 249.51108078 -33.87281799 247.3115387 C-33.89687972 241.20119656 -33.93472926 235.091005 -33.97501373 228.98075104 C-34.00079012 224.87412072 -34.02257967 220.76748878 -34.04266357 216.66082764 C-34.04787091 215.59963677 -34.04787091 215.59963677 -34.05318344 214.51700771 C-34.0566878 213.80285579 -34.06019216 213.08870388 -34.06380272 212.352911 C-34.14247907 196.32453789 -34.24370036 180.29637028 -34.3558315 164.26819932 C-34.36127088 163.49060907 -34.36671025 162.71301883 -34.37231445 161.91186523 C-34.37776736 161.13325878 -34.38322026 160.35465232 -34.38883841 159.55245173 C-34.43314084 153.17828576 -34.4729929 146.80409709 -34.51199192 140.42989677 C-34.55066041 134.14484102 -34.59258337 127.85981199 -34.63687855 121.5747934 C-34.66286774 117.87919579 -34.68769207 114.18360155 -34.70907402 110.48797417 C-34.79123764 96.49101872 -34.93847232 82.50121415 -35.44555664 68.51196289 C-35.50024817 66.93550192 -35.50024817 66.93550192 -35.55604458 65.32719326 C-36.06051205 52.85106354 -37.44727946 40.36151243 -46.8515625 31.1953125 C-54.44565066 25.11399091 -62.75623398 22.60453927 -72.1796875 20.7109375 C-75 20 -75 20 -78 18 C-78.3125 15.5 -78.3125 15.5 -78 13 C-75.24233899 10.24233899 -72.52771646 10.45094711 -68.8125 10.125 C-67.18463505 9.96090002 -65.55705022 9.79400793 -63.9296875 9.625 C-62.54281738 9.48191406 -62.54281738 9.48191406 -61.12792969 9.3359375 C-41.33648516 7.21034995 -19.39702921 -0.36598168 0 0 Z " fill="#4A4A49" transform="translate(2041,77)"/>
<path d="M0 0 C0.85710098 15.11105263 1.16065969 30.1729179 1.18945312 45.30639648 C1.19741983 47.66473022 1.20580958 50.02306256 1.21458435 52.38139343 C1.23248494 57.41798421 1.24755533 62.45457223 1.26036072 67.49117851 C1.27907299 74.80548433 1.30354633 82.11976158 1.32973462 89.4340433 C1.37232361 101.35079454 1.41147161 113.26755412 1.44775391 125.18432617 C1.45099811 126.24927391 1.45099811 126.24927391 1.45430785 127.33573575 C1.4674328 131.65019585 1.48047535 135.96465619 1.49348927 140.27911663 C1.5129589 146.73352277 1.53250785 153.18792866 1.55224609 159.64233398 C1.5554844 160.70185543 1.5554844 160.70185543 1.55878812 161.78278136 C1.59517409 173.65099279 1.63514827 185.51918971 1.67754889 197.38738114 C1.701086 204.01896914 1.7225965 210.65055485 1.73963928 217.28216362 C1.77878656 250.00546981 1.77878656 250.00546981 2.33007812 282.72290039 C2.35148613 283.84130782 2.37289413 284.95971525 2.39495087 286.11201382 C2.70213627 295.35904895 3.69272767 305.79168876 10 313 C17.07902481 319.04306996 26.84976383 320.12657848 35.78515625 321.47265625 C38 322 38 322 40 324 C40.3125 326.5 40.3125 326.5 40 329 C36.02971025 331.64685984 32.87167129 331.02535094 28.3125 330.6875 C27.17458008 330.61499023 27.17458008 330.61499023 26.01367188 330.54101562 C22.24478876 330.29875219 18.47856663 330.03825689 14.71386719 329.73730469 C2.85386749 328.86630181 -8.98651394 328.84789582 -20.87451172 328.86962891 C-24.38904062 328.87502154 -27.90344355 328.86963663 -31.41796875 328.86328125 C-33.68229194 328.8639416 -35.94661506 328.86522185 -38.2109375 328.8671875 C-39.7643837 328.86415115 -39.7643837 328.86415115 -41.34921265 328.86105347 C-46.91111773 328.87878621 -52.35828688 329.13454487 -57.88554382 329.76608276 C-60.73766621 330.08160625 -63.56918561 330.20428981 -66.4375 330.25 C-67.42621094 330.27578125 -68.41492187 330.3015625 -69.43359375 330.328125 C-72 330 -72 330 -73.84765625 328.64453125 C-75 327 -75 327 -75 324.4375 C-74 322 -74 322 -71.88671875 320.8984375 C-68.50979969 319.84743428 -65.33269473 319.51945619 -61.8125 319.1875 C-54.42766978 318.31646874 -47.88002225 316.79358611 -42.421875 311.45703125 C-33.38000035 299.11977458 -33.84253706 279.64003706 -33.8671875 265.16796875 C-33.86582291 263.8831813 -33.86445831 262.59839386 -33.86305237 261.27467346 C-33.86020471 257.67601398 -33.86474367 254.07739803 -33.87122726 250.47874451 C-33.87502769 248.17068424 -33.87708109 245.86262819 -33.87869263 243.55456543 C-33.90555779 210.41517501 -34.14281645 177.27627549 -34.39027476 144.13791877 C-34.42713718 139.19086242 -34.4622494 134.24379563 -34.49676514 129.29672241 C-34.54427088 122.51469493 -34.59695157 115.73272167 -34.65281487 108.95075798 C-34.67296249 106.43621816 -34.69177897 103.92166723 -34.70910835 101.4071064 C-34.79246229 89.49790732 -34.93924531 77.60293832 -35.46899414 65.70410156 C-35.50859725 64.81219997 -35.54820036 63.92029839 -35.58900356 63.00136948 C-36.21494751 50.28622996 -38.17361301 38.93109395 -48 30 C-55.56255193 24.73475158 -64.09109335 22.21404157 -73.0546875 20.52734375 C-75 20 -75 20 -78 18 C-78.3125 15.5 -78.3125 15.5 -78 13 C-75.24222823 10.24222823 -72.52774821 10.45121894 -68.8125 10.125 C-67.17943942 9.95946061 -65.54664526 9.79128097 -63.9140625 9.62109375 C-62.98883789 9.52554199 -62.06361328 9.42999023 -61.11035156 9.33154297 C-54.96226101 8.67619705 -48.82299811 7.95126034 -42.6875 7.1875 C-42.01990662 7.10457703 -41.35231323 7.02165405 -40.66448975 6.93621826 C-31.09294023 5.72788351 -21.74331003 4.07398611 -12.41870117 1.57495117 C-11.65017822 1.36974854 -10.88165527 1.1645459 -10.08984375 0.953125 C-9.43878662 0.76911133 -8.78772949 0.58509766 -8.11694336 0.39550781 C-5.39407175 -0.11320537 -2.76451274 -0.02382985 0 0 Z " fill="#4A4A49" transform="translate(2876,77)"/>
<path d="M0 0 C1 1 1 1 1.25 4.5 C1.21483269 9.35308929 -0.25621855 13.51599057 -2 18 C-3.02673828 17.57074219 -3.02673828 17.57074219 -4.07421875 17.1328125 C-7.28361251 15.89019008 -10.51910114 14.87299966 -13.8125 13.875 C-14.97394531 13.52179687 -16.13539063 13.16859375 -17.33203125 12.8046875 C-18.65267578 12.40636719 -18.65267578 12.40636719 -20 12 C-19.71125 12.53625 -19.4225 13.0725 -19.125 13.625 C-13.89721143 24.66144253 -14.77117811 36.77071181 -18.7265625 48.08984375 C-20.64680205 52.47812124 -23.0914581 56.21250313 -26 60 C-26.86625 61.299375 -26.86625 61.299375 -27.75 62.625 C-36.87552513 72.25749874 -49.11315736 77.43395965 -62.25390625 78.1171875 C-63.83640676 78.12358144 -65.41904723 78.07026457 -67 78 C-68.19174743 80.38349487 -68.11075627 81.66923121 -67.9375 84.3125 C-67.90527344 85.07175781 -67.87304688 85.83101562 -67.83984375 86.61328125 C-65.92149755 92.06495347 -59.46577411 95.02376935 -54.60546875 97.5234375 C-53.38994753 98.15880361 -52.1744536 98.79422193 -50.95898438 99.4296875 C-49.07810111 100.40175806 -47.1956991 101.37078997 -45.31225586 102.33789062 C-33.60512331 108.37037346 -21.68926785 114.60913638 -16.625 127.5 C-14.91857321 137.05599002 -16.50706428 145.30429702 -21.5625 153.625 C-30.42301674 165.977346 -44.94004813 172.06833704 -59.52294922 174.67480469 C-75.86710588 176.82051893 -92.71853808 176.39119773 -106.64453125 166.90625 C-111.3722955 163.08013233 -114.61340552 158.62846529 -115.2734375 152.43359375 C-115.62632723 142.0233466 -112.71549188 135.60871971 -105.6875 128 C-100.35070328 122.91349178 -89.57427995 113 -82 113 C-82.49371094 112.443125 -82.98742188 111.88625 -83.49609375 111.3125 C-90.11594482 103.42728504 -90.11594482 103.42728504 -90.328125 98.1015625 C-89.06820846 90.03209705 -83.8711015 84.24503617 -78 79 C-76.99427604 78.00575691 -75.99245315 77.00749032 -75 76 C-75.50789063 75.731875 -76.01578125 75.46375 -76.5390625 75.1875 C-83.07076216 71.46907922 -87.18478618 66.97618266 -90.3125 60.125 C-93.50271164 45.62403798 -91.02082294 32.91812181 -83.25 20.375 C-76.50091006 10.75253513 -65.60693641 3.42559817 -54 1 C-51.10959229 0.82680268 -48.26671589 0.71505991 -45.375 0.6875 C-44.5617627 0.67807373 -43.74852539 0.66864746 -42.91064453 0.65893555 C-38.29406504 0.69816863 -35.00466205 1.06381416 -30.875 3.3125 C-26.85407159 5.32296421 -24.36627966 4.84300165 -20.11791992 3.49145508 C-18.71439129 3.00009872 -17.31343964 2.50131383 -15.9152832 1.99487305 C-10.57056012 0.06775983 -5.71135163 -0.90656375 0 0 Z M-57.484375 10.08984375 C-66.96112436 22.03347889 -68.69940117 37.66711073 -67.7890625 52.41796875 C-66.93400171 58.78252503 -65.25188498 64.07942095 -61 69 C-58.21065703 71.24672931 -58.21065703 71.24672931 -55.1875 71.0625 C-49.86278378 69.28759459 -47.31147334 65.56294463 -44.8046875 60.6640625 C-43.72899728 58.13818249 -42.82851286 55.61698533 -42 53 C-41.773125 52.28714844 -41.54625 51.57429687 -41.3125 50.83984375 C-38.06052395 38.03518807 -37.99549891 21.45588116 -44.8125 9.9375 C-49.22524435 6.02906929 -53.12489672 5.97128401 -57.484375 10.08984375 Z M-81.375 119 C-87.5574945 125.31171062 -91.08121829 131.88113442 -91.25 140.8125 C-91.12595314 148.5146826 -88.06409507 153.63279013 -82.96875 159.203125 C-75.49124501 166.02783194 -66.58488632 166.45527813 -56.93359375 166.27734375 C-50.2651916 165.80717835 -46.95585393 163.78577967 -42.125 159.375 C-38.975799 154.37332782 -37.41934878 149.46199593 -38.4140625 143.53125 C-41.8379216 132.24380243 -51.3794864 127.15106689 -61.18359375 121.81054688 C-71.58449874 115.07943335 -71.58449874 115.07943335 -81.375 119 Z " fill="#B41621" transform="translate(2302,562)"/>
<path d="M0 0 C1.22882605 3.68647815 0.70926089 5.67590464 0.01930237 9.49504089 C-0.15705052 10.48884757 -0.15705052 10.48884757 -0.3369661 11.50273114 C-0.7337969 13.72865051 -1.14123102 15.95249774 -1.54858398 18.17651367 C-1.83480504 19.76974889 -2.12035195 21.36310535 -2.40527344 22.95657349 C-3.02091033 26.39169941 -3.641172 29.82594698 -4.26495171 33.2596035 C-5.25164338 38.69200753 -6.22714519 44.12638348 -7.20094299 49.56111145 C-9.27101024 61.10482834 -11.35384636 72.64622912 -13.4375 84.1875 C-15.68351765 96.62955978 -17.92704461 109.07204832 -20.15737396 121.51693135 C-21.12536409 126.91578024 -22.10014613 132.31334463 -23.08020198 137.71001565 C-23.68983591 141.07476312 -24.29371026 144.44052595 -24.89606476 147.8065834 C-25.17580761 149.36301157 -25.45792971 150.91901435 -25.7426548 152.4745388 C-26.13232857 154.60527074 -26.51331601 156.73738882 -26.89231873 158.87004089 C-27.10747352 160.06078815 -27.32262831 161.2515354 -27.54430294 162.4783659 C-28.0500241 166.38658702 -28.07667537 170.06337009 -28 174 C-26.23075106 174.76860818 -26.23075106 174.76860818 -24 175 C-21.66386931 173.92471083 -21.66386931 173.92471083 -19.4375 172.25 C-18.67308594 171.71890625 -17.90867187 171.1878125 -17.12109375 170.640625 C-15.25296767 169.1956656 -13.61746757 167.7156525 -12 166 C-11.01 166.33 -10.02 166.66 -9 167 C-9.89522986 173.81014147 -17.35601596 179.89560454 -22.48828125 183.98046875 C-29.5594352 188.79360715 -35.38820157 190.90799852 -44 190 C-48.29135511 188.26519687 -49.99882981 186.11476567 -52 182 C-52.36328125 178.43359375 -52.36328125 178.43359375 -52.3125 174.4375 C-52.29993164 173.39045898 -52.29993164 173.39045898 -52.28710938 172.32226562 C-52.14519279 166.10631905 -51.29013232 160.08205239 -50 154 C-50.4125 154.67804688 -50.825 155.35609375 -51.25 156.0546875 C-60.44439985 170.87244798 -70.89797503 185.29932501 -88 191 C-96.01358454 191.677048 -103.16568321 191.58957257 -110 187 C-115.60413498 181.76135208 -117.61245019 176.09763036 -118.3203125 168.61328125 C-119.07235208 144.62321859 -107.42830416 124.11643382 -91.94921875 106.69140625 C-81.91210517 96.10381112 -66.89129629 84.96181831 -51.83889771 83.83876038 C-49.57690318 83.804372 -47.32414862 83.82461194 -45.0625 83.875 C-44.28326172 83.88402344 -43.50402344 83.89304687 -42.70117188 83.90234375 C-40.80064553 83.92566309 -38.90027992 83.96152414 -37 84 C-35.70283949 77.2442453 -34.42305635 70.48535823 -33.15478516 63.72412109 C-32.72217145 61.4287844 -32.28571801 59.1341677 -31.84521484 56.84033203 C-31.20937959 53.52562627 -30.58781993 50.20849776 -29.96875 46.890625 C-29.77188599 45.88074524 -29.57502197 44.87086548 -29.37219238 43.8303833 C-26.97028527 32.23248664 -26.97028527 32.23248664 -29 21 C-33.96916636 21.51405169 -38.29026351 22.23384882 -43 24 C-43.33 22.35 -43.66 20.7 -44 19 C-42.97398682 18.50971313 -42.97398682 18.50971313 -41.92724609 18.00952148 C-38.74255187 16.48679103 -35.55878048 14.96213999 -32.375 13.4375 C-30.66231934 12.61910645 -30.66231934 12.61910645 -28.91503906 11.78417969 C-21.61950413 8.28946346 -21.61950413 8.28946346 -14.3984375 4.64453125 C-13.76502441 4.31718994 -13.13161133 3.98984863 -12.47900391 3.65258789 C-10.87198697 2.81368058 -9.27163525 1.96203909 -7.671875 1.109375 C-4.88094936 -0.04943038 -2.98822918 -0.23993081 0 0 Z M-80.1875 106.0625 C-90.62818745 118.62810232 -94.15058402 136.51888075 -94.25 152.5 C-94.270625 153.32886719 -94.29125 154.15773438 -94.3125 155.01171875 C-94.35273105 161.33805077 -93.20379302 165.53693721 -88.875 170.375 C-84.76408071 172.69856307 -81.61168783 172.94429799 -77 172 C-63.50249756 166.46309884 -54.86358074 153.00115489 -49.234375 140.078125 C-44.93477573 129.71089066 -41.81643191 120.33887456 -43 109 C-45.13473258 104.49334232 -47.91822129 101.8258468 -52 99 C-62.94831172 95.35056276 -72.44631303 98.03353656 -80.1875 106.0625 Z " fill="#B51621" transform="translate(2021,477)"/>
<path d="M0 0 C0.41591336 7.90018109 -1.14921448 15.44547194 -2.5703125 23.17749023 C-2.84679106 24.71073428 -3.12263259 26.24409331 -3.39788818 27.77755737 C-3.98980494 31.06793771 -4.58598763 34.35750562 -5.18548584 37.64651299 C-6.13421317 42.85279684 -7.07207738 48.06100173 -8.00830078 53.26954651 C-10.33513119 66.20462711 -12.67732217 79.13692128 -15.02026367 92.0690918 C-16.84188152 102.12511534 -18.65971969 112.18179474 -20.46707726 122.24039227 C-21.39684585 127.4124477 -22.33404409 132.58308321 -23.27700806 137.75274837 C-23.86319613 140.9754012 -24.44284647 144.19920529 -25.02075958 147.42335129 C-25.28890416 148.91169402 -25.55972095 150.39955834 -25.83348846 151.88687706 C-27.19824077 159.30898218 -28.34331588 166.42751744 -28 174 C-26.14057085 174.65935143 -26.14057085 174.65935143 -24 175 C-21.04797373 173.36702059 -21.04797373 173.36702059 -18 171 C-16.70991605 170.08110721 -15.41825581 169.1644233 -14.125 168.25 C-13.09375 167.5075 -12.0625 166.765 -11 166 C-10.34 166.33 -9.68 166.66 -9 167 C-10.44414479 175.66486875 -19.74056805 181.61010302 -26.38671875 186.37109375 C-32.41912911 190.13120604 -37.97085395 191.02915755 -45 190 C-48.67075023 188.14680571 -50.68159488 185.95521537 -52 182 C-52.0979185 179.30148139 -52.14132419 176.63536401 -52.125 173.9375 C-52.12306641 173.17832275 -52.12113281 172.41914551 -52.11914062 171.63696289 C-52.07620915 166.03619462 -51.70605171 160.56015724 -51 155 C-51.54527344 155.89460937 -52.09054687 156.78921875 -52.65234375 157.7109375 C-61.37118183 171.78409898 -71.74272376 185.58090792 -88 191 C-96.0057846 191.676389 -103.17558629 191.5971992 -110 187 C-116.08418088 181.18034872 -118.07385745 175.35100576 -118.4050293 167.13183594 C-118.74482584 144.16874342 -107.67458284 123.95739653 -92.37890625 107.4453125 C-81.75225243 96.52201973 -68.02750066 84.79044932 -51.98535156 83.88647461 C-51.2940918 83.89171143 -50.60283203 83.89694824 -49.890625 83.90234375 C-49.13652344 83.90556641 -48.38242188 83.90878906 -47.60546875 83.91210938 C-46.82816406 83.92048828 -46.05085938 83.92886719 -45.25 83.9375 C-44.45722656 83.94201172 -43.66445312 83.94652344 -42.84765625 83.95117188 C-40.89840492 83.96291435 -38.94919262 83.98084854 -37 84 C-35.70444941 77.08316465 -34.42443165 70.16358005 -33.15478516 63.24194336 C-32.72177011 60.89135945 -32.28530299 58.54140859 -31.84521484 56.19213867 C-31.21046027 52.80030386 -30.58847104 49.40632851 -29.96875 46.01171875 C-29.77188599 44.97480392 -29.57502197 43.9378891 -29.37219238 42.86955261 C-27.05226975 31.76753882 -27.05226975 31.76753882 -29 21 C-33.96916636 21.51405169 -38.29026351 22.23384882 -43 24 C-43.33 22.35 -43.66 20.7 -44 19 C-38.54352777 16.2814675 -33.08085839 13.57597599 -27.61206055 10.88232422 C-25.75288059 9.96432675 -23.8954382 9.04280145 -22.03979492 8.11767578 C-19.3708772 6.78785914 -16.69595025 5.47089071 -14.01953125 4.15625 C-13.19226028 3.74064819 -12.36498932 3.32504639 -11.51264954 2.89685059 C-4.36729569 -0.58590375 -4.36729569 -0.58590375 0 0 Z M-80.1875 106.0625 C-90.63341012 118.61394583 -94.15611475 136.03950693 -94.25 152 C-94.270625 152.8765625 -94.29125 153.753125 -94.3125 154.65625 C-94.35160984 161.14848301 -93.34250495 165.45670891 -88.8125 170.375 C-85.12426608 172.5059796 -82.10386236 172.74477502 -78 172 C-64.43952084 167.39357769 -56.71989363 154.79003345 -50.67163086 142.57617188 C-45.53795479 131.7795254 -41.39288777 121.19619617 -43 109 C-45.15937638 104.52129344 -47.92952939 101.81801812 -52 99 C-62.94831172 95.35056276 -72.44631303 98.03353656 -80.1875 106.0625 Z M-50 152 C-49 154 -49 154 -49 154 Z " fill="#B51621" transform="translate(1905,477)"/>
<path d="M0 0 C4.21923308 3.70781089 5.32803994 7.12469602 5.94238281 12.65942383 C6.13086474 16.03792411 5.6503362 19.25062858 5.0625 22.5625 C4.93512451 23.3354541 4.80774902 24.1084082 4.67651367 24.90478516 C3.66773726 30.82713641 2.48944197 36.71339701 1.30078125 42.6015625 C0.98240043 44.19172748 0.6640413 45.7818968 0.34570312 47.37207031 C-0.28690574 50.5285748 -0.93780603 53.68055675 -1.59960938 56.83105469 C-5.03868316 71.39298607 -5.03868316 71.39298607 -2.65112305 85.63427734 C-0.99733436 88.2498836 -0.99733436 88.2498836 2.875 88.375 C8.83375011 87.95092837 12.42754552 84.65478354 16.4375 80.5 C31.62774766 62.29846977 37.81589391 35.79781522 41.9609375 13.05859375 C42.08823242 12.36217773 42.21552734 11.66576172 42.34667969 10.94824219 C42.66124606 9.15007625 42.94531118 7.34664567 43.2265625 5.54296875 C44.0625 2.8125 44.0625 2.8125 45.8359375 0.98828125 C49.9626141 -1.19089358 54.02253196 -1.34299396 58.625 -1.375 C60.01912109 -1.39626953 60.01912109 -1.39626953 61.44140625 -1.41796875 C64.16587014 -1.17841082 65.68541718 -0.46343184 68.0625 0.8125 C67.38266411 8.65268538 65.87646658 16.28911457 64.33718872 23.99475098 C63.54270446 27.97887054 62.76402902 31.96608132 61.984375 35.953125 C61.82485855 36.76803406 61.6653421 37.58294312 61.50099182 38.42254639 C59.97168999 46.24896489 58.47239023 54.08061936 57.02230835 61.92211914 C56.76000308 63.33521096 56.49510084 64.7478235 56.22744751 66.15991211 C53.38656977 77.59216087 53.38656977 77.59216087 55.0625 88.8125 C61.20931631 88.68444133 63.84762723 86.70019432 68.16796875 82.40625 C70.17277039 80.71973645 71.50531768 80.22074197 74.0625 79.8125 C74.3925 80.8025 74.7225 81.7925 75.0625 82.8125 C68.97279324 92.41549911 58.74708443 100.25097186 48.0625 103.8125 C39.04134408 104.80383582 39.04134408 104.80383582 35.04296875 102.80078125 C32.42163833 100.67692959 31.13253698 99.02261094 30.0625 95.8125 C29.50320934 86.27854519 30.46586454 77.19273335 32.0625 67.8125 C31.54042969 68.82828125 31.01835937 69.8440625 30.48046875 70.890625 C23.43495653 84.21487937 13.53363945 99.37914862 -1.60546875 104.3359375 C-8.34111414 105.71240105 -15.44159721 106.18838536 -21.5625 102.6875 C-25.74869487 99.55887015 -27.36961599 96.08403604 -28.625 91.0625 C-29.49662538 81.99759604 -28.4415872 73.67086392 -26.75 64.75 C-26.52803955 63.53715332 -26.3060791 62.32430664 -26.07739258 61.07470703 C-24.94760613 54.96154971 -23.75478404 48.86443333 -22.4921875 42.77734375 C-22.26297607 41.66689697 -22.03376465 40.5564502 -21.79760742 39.41235352 C-21.36247598 37.32609174 -20.91794515 35.24175885 -20.4621582 33.15991211 C-19.15771794 26.95371603 -18.66480091 21.15123882 -18.9375 14.8125 C-20.79414708 14.15251307 -20.79414708 14.15251307 -22.9375 13.8125 C-26.34727933 15.73976658 -29.20895781 18.04180629 -32.125 20.625 C-33.053125 21.346875 -33.98125 22.06875 -34.9375 22.8125 C-35.9275 22.4825 -36.9175 22.1525 -37.9375 21.8125 C-36.46535992 13.66754439 -26.55279335 6.42942782 -20.13671875 1.78515625 C-13.67712743 -1.76916433 -6.93550729 -2.80371571 0 0 Z " fill="#B51621" transform="translate(2696.9375,563.1875)"/>
<path d="M0 0 C4.08923127 3.53743139 6.11760878 9.11575159 6.62109375 14.40234375 C6.89927842 21.46523593 6.23757094 28.08200845 4.99609375 35.02734375 C4.82368164 36.0313623 4.65126953 37.03538086 4.47363281 38.06982422 C3.38133451 44.34817315 2.21045343 50.61088444 1.01953125 56.87109375 C0.88328339 57.58921234 0.74703552 58.30733093 0.60665894 59.04721069 C-0.06911491 62.60442786 -0.75191643 66.16003032 -1.44775391 69.71337891 C-1.70097 71.02894756 -1.95406792 72.34453897 -2.20703125 73.66015625 C-2.54589355 75.39483154 -2.54589355 75.39483154 -2.89160156 77.16455078 C-3.82705662 82.92640562 -3.82705662 82.92640562 -2.37890625 88.40234375 C2.61791828 87.94076025 5.19658635 86.57455951 8.99609375 83.33984375 C9.87007812 82.60636719 10.7440625 81.87289062 11.64453125 81.1171875 C12.29679687 80.55128906 12.9490625 79.98539063 13.62109375 79.40234375 C14.28109375 79.73234375 14.94109375 80.06234375 15.62109375 80.40234375 C15.25063457 85.44058866 12.59200982 88.0510232 9.12109375 91.40234375 C8.58299072 91.93126221 8.0448877 92.46018066 7.49047852 93.00512695 C0.32523917 99.84955054 -6.83563958 103.80075051 -16.8671875 103.68359375 C-20.5922571 103.26647865 -22.6558657 101.92115626 -25.37890625 99.40234375 C-29.77361126 90.5550901 -27.20838141 79.77643687 -25.41015625 70.49609375 C-25.11050964 68.86625549 -25.11050964 68.86625549 -24.80480957 67.20349121 C-23.96032314 62.61199822 -23.09114628 58.0252692 -22.22412109 53.43798828 C-21.58997578 50.0630698 -20.96858756 46.68596425 -20.34765625 43.30859375 C-20.15079224 42.29261108 -19.95392822 41.27662842 -19.75109863 40.2298584 C-17.37216388 28.24119932 -17.37216388 28.24119932 -19.66784668 16.59729004 C-21.30727976 13.99429901 -21.30727976 13.99429901 -25.06640625 13.71484375 C-30.43963513 14.12666056 -33.70067927 16.61286605 -37.37890625 20.40234375 C-53.90098747 40.17657453 -60.29771026 67.0026549 -64.60620117 91.82470703 C-64.78256104 92.77458496 -64.9589209 93.72446289 -65.140625 94.703125 C-65.28459717 95.54012939 -65.42856934 96.37713379 -65.5769043 97.23950195 C-66.59994582 99.99844406 -67.90302177 100.88495229 -70.37890625 102.40234375 C-73.83434576 103.67887554 -77.28763003 103.53565723 -80.94140625 103.52734375 C-82.07707031 103.52992188 -83.21273437 103.5325 -84.3828125 103.53515625 C-87.37890625 103.40234375 -87.37890625 103.40234375 -90.37890625 102.40234375 C-89.6890205 94.75286922 -88.30806061 87.26838739 -86.8656292 79.73158073 C-86.4291328 77.4484216 -85.99759476 75.16437418 -85.56739807 72.88002014 C-84.34479687 66.39155378 -83.11517812 59.90443706 -81.87817383 53.41870117 C-81.11870112 49.4348387 -80.36635702 45.44968278 -79.61833382 41.46365547 C-79.33359689 39.95418708 -79.0461623 38.44522478 -78.75588799 36.93681145 C-78.34937493 34.82357885 -77.95196118 32.70881121 -77.55639648 30.59350586 C-77.32846909 29.39487411 -77.10054169 28.19624237 -76.8657074 26.96128845 C-75.8100167 20.0214897 -75.8100167 20.0214897 -77.37890625 13.40234375 C-82.84789877 13.40234375 -85.08441617 14.74313464 -89.06640625 18.52734375 C-90.15501953 19.64496094 -90.15501953 19.64496094 -91.265625 20.78515625 C-93.37890625 22.40234375 -93.37890625 22.40234375 -95.6484375 22.14453125 C-96.21949219 21.89960937 -96.79054688 21.6546875 -97.37890625 21.40234375 C-94.31947249 12.02342385 -84.75136551 5.05190365 -76.37890625 0.40234375 C-71.22352165 -2.010815 -65.98402186 -2.19753484 -60.37890625 -1.59765625 C-56.08353122 0.13877196 -54.41957469 2.30954245 -52.37890625 6.40234375 C-51.27105292 15.72975405 -52.81431293 25.21035799 -54.37890625 34.40234375 C-53.85683594 33.3865625 -53.33476562 32.37078125 -52.796875 31.32421875 C-45.71763471 17.9361789 -35.8348139 2.86865591 -20.64453125 -2.125 C-13.64477531 -3.58529391 -6.30228417 -3.68179179 0 0 Z " fill="#B51621" transform="translate(2180.37890625,563.59765625)"/>
<path d="M0 0 C0.99 0.33 1.98 0.66 3 1 C2.4761473 9.81873792 0.93195133 18.39623599 -0.72903824 27.05452919 C-1.2049511 29.5385906 -1.67339161 32.02396053 -2.13986206 34.5098114 C-3.46560302 41.56886525 -4.80271269 48.62573061 -6.14892578 55.6809082 C-6.97572261 60.01674265 -7.79253827 64.35436178 -8.60326767 68.69322777 C-8.91280132 70.33853845 -9.22618506 71.98312981 -9.5435524 73.6269474 C-9.98646853 75.92192676 -10.41668998 78.21896122 -10.84423828 80.5168457 C-10.97717285 81.18864868 -11.11010742 81.86045166 -11.24707031 82.5526123 C-11.99042735 86.637495 -11.9144474 89.95331056 -11 94 C-5.24216766 93.85236327 -2.23153146 91.08475153 1.94921875 87.49609375 C4 86 4 86 7 86 C6.62952646 91.03844018 3.97072034 93.64835744 0.5 97 C-0.03737793 97.52891846 -0.57475586 98.05783691 -1.12841797 98.6027832 C-5.33469775 102.62490559 -9.65652846 105.63976705 -15 108 C-15.99 108.495 -15.99 108.495 -17 109 C-21.79257196 109.40131037 -26.38871997 109.50352501 -31 108.0625 C-34.96886579 103.96960715 -36.14291848 98.4711901 -36.3125 92.875 C-36.08699436 86.21664929 -34.97161138 79.5844021 -34 73 C-34.3403125 73.60585938 -34.680625 74.21171875 -35.03125 74.8359375 C-43.47049686 89.42506105 -55.15519502 104.04103595 -71.765625 109.56640625 C-78.04852721 110.78564077 -84.48449749 110.83850084 -90.5625 108.8125 C-95.35520726 105.24869204 -97.37830301 101.67593946 -99 96 C-101.45176944 75.07443296 -91.0676319 53.44364677 -78.6015625 37.2109375 C-66.90174107 22.54846228 -52.36145987 6.3056151 -33 3 C-25.64754611 2.21782405 -19.87328019 2.90392471 -13.15625 6.02734375 C-10.75607165 7.18694357 -10.75607165 7.18694357 -7 8 C-3.535 4.04 -3.535 4.04 0 0 Z M-60.3125 27.5390625 C-70.17773977 41.9258705 -77.51126928 63.25905351 -74.51953125 80.8203125 C-73.56880934 84.0874342 -72.46746992 86.42864787 -70.3125 89.0625 C-66.79802398 90.48728757 -63.67648853 90.71394605 -60 90 C-54.81501899 87.67964938 -50.79695951 84.18639126 -47 80 C-46.49082031 79.50628906 -45.98164063 79.01257813 -45.45703125 78.50390625 C-34.55481749 67.3023182 -26.97420142 49.78643192 -25.96875 34.27734375 C-26.06305406 27.40493506 -28.25333015 22.86533659 -33 18 C-43.18779679 12.9061016 -54.00096492 19.67886372 -60.3125 27.5390625 Z " fill="#B41621" transform="translate(2578,558)"/>
<path d="M0 0 C1.32 0.33 2.64 0.66 4 1 C1.63109673 15.24038274 -0.88007198 29.44747183 -3.55859375 43.6328125 C-3.78367615 44.82935455 -4.00875854 46.02589661 -4.24066162 47.25869751 C-6.08797503 57.07848425 -6.08797503 57.07848425 -7.01043701 61.8916626 C-7.67685258 65.36917251 -8.33331881 68.84844253 -8.98828125 72.328125 C-9.19118271 73.37098663 -9.39408417 74.41384827 -9.60313416 75.48831177 C-10.71262123 81.43705483 -11.20179985 86.94835544 -11 93 C-7.81429531 94.03836543 -7.81429531 94.03836543 -4.7109375 92.85546875 C-3.55464844 92.02982422 -3.55464844 92.02982422 -2.375 91.1875 C-1.59898438 90.64480469 -0.82296875 90.10210938 -0.0234375 89.54296875 C2.07496836 88.01404133 2.07496836 88.01404133 4 86 C6.125 86.375 6.125 86.375 8 87 C3.72725519 96.46412976 -5.23538909 103.81415499 -14.48828125 108.171875 C-19.59021781 109.8540065 -24.96149759 109.82407544 -29.9375 107.8125 C-32.84936666 105.25358688 -34.76332678 102.90536631 -35.25561523 98.94213867 C-35.33188227 96.51725789 -35.31039568 94.1127639 -35.25 91.6875 C-35.24484375 90.87087891 -35.2396875 90.05425781 -35.234375 89.21289062 C-35.16881659 84.07065247 -34.72631338 79.090051 -34 74 C-34.60134766 75.01707031 -34.60134766 75.01707031 -35.21484375 76.0546875 C-43.73039748 89.99625165 -55.88156595 104.35089949 -71.93359375 109.63671875 C-78.51126408 110.79309558 -85.69823331 111.31208403 -91.625 107.875 C-95.79211571 104.70799206 -97.46674058 101.67469489 -98.49609375 96.51171875 C-101.26409351 75.42355562 -91.00736906 54.80326767 -78.9609375 38.1875 C-77.03462829 35.73164761 -75.04508048 33.35757827 -73 31 C-72.30261719 30.16984375 -71.60523438 29.3396875 -70.88671875 28.484375 C-60.90942406 16.92985255 -46.36801019 4.21166214 -30.37109375 2.76171875 C-23.66139472 2.59196604 -18.55260531 3.47745487 -12.375 6.125 C-9.79628077 7.23047024 -9.79628077 7.23047024 -6 7 C-4.22239242 5.48990073 -4.22239242 5.48990073 -2.75 3.5 C-2.22921875 2.8503125 -1.7084375 2.200625 -1.171875 1.53125 C-0.78515625 1.0259375 -0.3984375 0.520625 0 0 Z M-54 22 C-54.58265625 22.43828125 -55.1653125 22.8765625 -55.765625 23.328125 C-66.90366635 32.86068291 -72.1398995 51.05793828 -74 65 C-74.17976568 67.83473938 -74.23003582 70.6600953 -74.25 73.5 C-74.270625 74.23347656 -74.29125 74.96695313 -74.3125 75.72265625 C-74.34702414 80.54740463 -73.68638992 83.83232966 -71 88 C-67.26421216 90.49052523 -64.32318324 90.50519957 -60 90 C-46.33117448 85.3467828 -38.69641121 70.97258131 -32.71435547 58.83642578 C-27.66620809 48.31172745 -23.63759073 36.87469757 -27.125 25.25 C-29.24502222 21.57529482 -31.11529806 18.78507559 -35 17 C-42.6492192 15.56138538 -48.09974259 17.1083336 -54 22 Z " fill="#B41621" transform="translate(1770,558)"/>
<path d="M0 0 C-0.55762651 9.15532874 -1.93374468 18.05225345 -3.59204102 27.06494141 C-3.85870478 28.53805987 -4.12484349 30.01127345 -4.39050293 31.48457336 C-4.95919733 34.63285984 -5.53127773 37.78050448 -6.10601997 40.92769241 C-7.01598254 45.91212003 -7.91655491 50.89821686 -8.81565857 55.88461304 C-11.21086289 69.16006596 -13.61856099 82.43324755 -16.03121179 95.70554006 C-17.61955157 104.44359148 -19.20284052 113.18252514 -20.77678055 121.92318285 C-21.66845417 126.87260278 -22.56806948 131.82049003 -23.47381413 136.7673533 C-24.03657519 139.85118706 -24.59200004 142.93630955 -25.14545441 146.02182579 C-25.40200293 147.4436943 -25.66151163 148.86503266 -25.92432213 150.28575706 C-27.33623437 157.92784848 -28.40417119 165.2180428 -28 173 C-26.13545946 173.66033431 -26.13545946 173.66033431 -24 174 C-21.19923395 172.35546456 -21.19923395 172.35546456 -18.4375 170.0625 C-13.30188679 166 -13.30188679 166 -10 166 C-10 170.51001541 -10 170.51001541 -12.7109375 173.27734375 C-13.29125732 173.87144043 -13.87157715 174.46553711 -14.46948242 175.07763672 C-15.09830322 175.6913916 -15.72712402 176.30514648 -16.375 176.9375 C-17.33466675 177.87746826 -17.33466675 177.87746826 -18.3137207 178.83642578 C-24.82964747 185.0412148 -30.54888148 189.08011546 -39.75 189.625 C-43.22212738 189.43837929 -45.71320854 189.03817929 -48.5625 187 C-53.84163164 180.50260721 -53.05372901 174.47167281 -52.38443184 166.55895042 C-51.76975276 160.86844268 -50.75101011 155.27806269 -49.68334961 149.6574707 C-49.3238176 147.71799039 -48.96428676 145.77850985 -48.60480034 143.83902109 C-48.22226709 141.78236086 -47.8364043 139.7263509 -47.44956779 137.67049599 C-46.63925937 133.36253186 -45.84001223 129.05255865 -45.04237366 124.74223328 C-43.06105961 114.04471983 -41.06599098 103.34977805 -39.06719971 92.65551758 C-37.5100398 84.32342486 -35.95695181 75.9906176 -34.41612059 67.65548772 C-33.62513493 63.37917189 -32.82588888 59.10451279 -32.02015102 54.83095324 C-31.40204148 51.54006787 -30.79560673 48.24704857 -30.18725586 44.9543457 C-29.96440918 43.7857753 -29.7415625 42.6172049 -29.51196289 41.41322327 C-27.13111903 30.56548571 -27.13111903 30.56548571 -29 20 C-33.96916636 20.51405169 -38.29026351 21.23384882 -43 23 C-43.66 21.68 -44.32 20.36 -45 19 C-34.9586582 13.60636497 -24.86036474 8.32967659 -14.625 3.3125 C-13.29819214 2.64371826 -13.29819214 2.64371826 -11.94458008 1.96142578 C-11.10950928 1.55778809 -10.27443848 1.15415039 -9.4140625 0.73828125 C-8.6813916 0.37774658 -7.9487207 0.01721191 -7.19384766 -0.35424805 C-4.47510341 -1.15450161 -2.72780589 -0.62381204 0 0 Z " fill="#B51621" transform="translate(2654,478)"/>
<path d="M0 0 C4.01693995 1.36746892 4.84568276 2.7511383 7.09765625 6.3828125 C9.70352268 11.77041255 9.6038898 16.98566287 9.5 22.875 C9.48718994 23.97835693 9.47437988 25.08171387 9.46118164 26.21850586 C8.85402175 51.03999483 -0.54560353 73.25026688 -18 91 C-19.06541016 92.08474609 -19.06541016 92.08474609 -20.15234375 93.19140625 C-29.51201505 102.11102067 -39.78225278 106.47973932 -52.609375 106.3359375 C-59.8319961 105.62033218 -65.04755698 102.37224574 -69.9375 97.125 C-75.85223512 89.73506036 -77.96012666 81.3647137 -77 72 C-74.95840306 62.31216739 -70.64196655 53.79515883 -66.09521484 45.10107422 C-64.21835593 41.50048398 -62.38948595 37.87607581 -60.5625 34.25 C-60.22057617 33.58250732 -59.87865234 32.91501465 -59.52636719 32.22729492 C-57.98171256 29.17137724 -56.74862851 26.33632865 -56 23 C-59.54257346 23.08135065 -63.0834847 23.19415176 -66.625 23.3125 C-68.12353516 23.34633789 -68.12353516 23.34633789 -69.65234375 23.38085938 C-75.20964919 23.58327779 -79.1283111 24.05964408 -84 27 C-84.66 27 -85.32 27 -86 27 C-86.28875 27.763125 -86.5775 28.52625 -86.875 29.3125 C-88 32 -88 32 -90 35 C-90.99 35 -91.98 35 -93 35 C-92.4867192 29.11043179 -91.28201156 24.32613781 -88.875 18.9375 C-88.5644165 18.23866699 -88.25383301 17.53983398 -87.93383789 16.81982422 C-85.05415063 10.63382936 -81.90432756 5.57492793 -75.37084961 2.93945312 C-71.57543763 1.8816748 -68.09662392 1.74639616 -64.1953125 1.8046875 C-63.4713327 1.8075174 -62.74735291 1.81034729 -62.00143433 1.81326294 C-59.7091151 1.82437913 -57.41719937 1.84946688 -55.125 1.875 C-53.56250568 1.8850409 -52.00000518 1.89416481 -50.4375 1.90234375 C-46.62484662 1.92429027 -42.81249152 1.95875987 -39 2 C-37.75677538 5.72967385 -38.40564044 6.61385024 -39.9140625 10.1640625 C-40.55807007 11.7123877 -40.55807007 11.7123877 -41.21508789 13.29199219 C-41.68035889 14.39188477 -42.14562988 15.49177734 -42.625 16.625 C-54.43076437 44.88786564 -54.43076437 44.88786564 -52.5 74.75 C-50.55500787 78.72130797 -48.26347255 81.18332469 -44.32421875 83.21484375 C-37.30478468 85.58611475 -31.39090687 84.52991376 -24.75 81.5 C-14.58350493 75.85779252 -9.64007846 67.52525337 -6.25 56.578125 C-4.00298023 47.52762872 -4.42590164 40.20682556 -9 32 C-11.21857945 29.06816499 -13.5336948 26.29018044 -15.9765625 23.54296875 C-19.20424033 19.48656282 -20.38774921 16.16998952 -20 11 C-19.55211966 7.28978141 -18.948779 5.35802248 -16.0625 2.9375 C-10.61612193 -0.50816776 -6.37945904 -0.48077083 0 0 Z " fill="#B51621" transform="translate(2458,562)"/>
<path d="M0 0 C2.79178935 2.36228329 4.81397194 4.21126867 5.203125 7.953125 C5.33543586 14.43635731 4.24056765 18.42993711 -0.125 23.4375 C-1.07375 24.283125 -2.0225 25.12875 -3 26 C-3.56976562 26.52335938 -4.13953125 27.04671875 -4.7265625 27.5859375 C-16.65775283 37.7666057 -37.19689488 47 -53 47 C-53.92548389 67.30329169 -53.92548389 67.30329169 -45 85 C-39.54020154 89.63448009 -34.13164786 91.35057258 -27 91 C-20.96723781 90.11663125 -15.17705219 88.9769345 -9.9375 85.75 C-7 84 -7 84 -4.5625 84.25 C-3.7890625 84.62125 -3.7890625 84.62125 -3 85 C-5.10822034 91.32466102 -13.3634967 95.63595301 -19.1484375 98.62890625 C-32.79398087 104.50455796 -46.69719421 106.39441371 -61.0234375 101.375 C-70.50490579 96.99510914 -75.31558696 89.53999806 -79 80 C-83.58242516 63.61009898 -79.33926614 44.96218679 -71.40942383 30.42822266 C-62.422542 15.0517064 -47.49012562 3.17652447 -30.375 -1.8125 C-20.60363752 -4.02178738 -9.02215581 -4.8580839 0 0 Z M-42.0625 12.5 C-47.7829793 20.54770841 -52 31.06556073 -52 41 C-42.83147478 40.58324885 -33.29239365 35.59933968 -27 29 C-22.74409065 23.40489784 -21.21143194 18.43519994 -21.5859375 11.3984375 C-21.88425382 8.84012441 -21.88425382 8.84012441 -23.5625 6.3125 C-31.23130409 2.18314395 -37.161572 6.49886368 -42.0625 12.5 Z " fill="#B41621" transform="translate(2862,564)"/>
<path d="M0 0 C3.16368165 2.92640553 4.28615304 5.46034095 4.77990723 9.73681641 C4.7665788 17.26845557 3.59900112 24.32177429 2.09375 31.6875 C1.84959351 32.93321777 1.60543701 34.17893555 1.35388184 35.46240234 C0.44827904 40.08142513 -0.47556836 44.69665062 -1.40081787 49.31176758 C-2.3098978 53.85147247 -3.20325965 58.39410394 -4.09375 62.9375 C-4.33436157 64.11489746 -4.57497314 65.29229492 -4.82287598 66.50537109 C-6.19930307 73.53579916 -6.81294104 80.15053049 -6.5 87.3125 C-4.63545946 87.97283431 -4.63545946 87.97283431 -2.5 88.3125 C0.30076605 86.66796456 0.30076605 86.66796456 3.0625 84.375 C8.19811321 80.3125 8.19811321 80.3125 11.5 80.3125 C11.5 84.95816301 10.44242423 85.85862047 7.28271484 89.03417969 C6.400271 89.88351074 6.400271 89.88351074 5.5 90.75 C4.90783691 91.33040039 4.31567383 91.91080078 3.70556641 92.50878906 C-3.80389005 99.72556297 -10.21230623 103.67370004 -20.8359375 103.51953125 C-24.25449226 103.25386644 -26.01953258 102.71545281 -28.5 100.3125 C-34.04505398 90.94327086 -31.19593885 80.35677409 -29.12890625 70.25390625 C-28.88712143 69.02896957 -28.64533661 67.8040329 -28.39622498 66.54197693 C-27.7570543 63.3079641 -27.11044071 60.07557554 -26.45910645 56.84399414 C-25.54459801 52.30382144 -24.63838096 47.76202659 -23.73948669 43.21873474 C-23.26231618 40.80892814 -22.77962437 38.40020572 -22.29042053 35.99281311 C-19.25231129 24.50572885 -19.25231129 24.50572885 -20.5 13.3125 C-26.63592304 13.44033173 -29.23361407 15.39134578 -33.5078125 19.71875 C-35.83392736 21.57964188 -37.57637699 21.94831167 -40.5 22.3125 C-40.13706226 17.24998386 -37.43216095 14.66124168 -33.9375 11.3125 C-33.12321533 10.51803467 -33.12321533 10.51803467 -32.29248047 9.70751953 C-23.61190438 1.41274683 -12.04562525 -5.80771218 0 0 Z " fill="#B41621" transform="translate(2060.5,563.6875)"/>
<path d="M0 0 C3.28566663 2.84165762 4.76768656 4.82158549 5.23828125 9.234375 C5.42102817 15.42853384 4.83716069 19.05208226 1 24 C-3.89561459 27.61342981 -9.13105574 27.81719477 -15 27 C-19.29077188 25.6551312 -21.60657287 23.65994229 -23.9375 19.75 C-25.48092358 14.30262267 -25.80579669 10.2053383 -23.8125 4.75 C-21.49437397 1.23284327 -19.07680139 -1.16927944 -15.125 -2.75 C-9.17784804 -3.44966494 -5.16244373 -3.21218721 0 0 Z " fill="#B51621" transform="translate(2069,509)"/>
<path d="M0 0 C3.10111855 3.19802851 3.2237505 6.14434109 3.375 10.4375 C3.24027989 14.98736555 2.66704635 18.18993378 0 22 C-4.22630511 25.83008901 -8.2145758 26.29526188 -13.71875 26.21484375 C-18.20785809 25.79206816 -21.02028353 23.87380118 -24.3125 20.9375 C-26.99546738 16.26714938 -27.69281141 11.23720731 -26.55859375 5.9375 C-24.98855314 1.77464948 -22.70775862 -0.64873843 -19 -3 C-12.24527317 -5.70189073 -5.77059099 -3.92504162 0 0 Z " fill="#B41621" transform="translate(1646,641)"/>
<path d="M0 0 C3.69613232 2.78562168 5.3382173 5.52427618 6.1015625 10.01953125 C6.23208769 15.02027745 6.00296918 19.46346209 2.8515625 23.51953125 C-1.52740406 27.50040994 -4.87504455 28.45707404 -10.84375 28.265625 C-15.67614875 27.6868396 -18.9273201 25.99064865 -22.3359375 22.58203125 C-24.62530389 17.36227588 -24.63744577 12.63137527 -23.8984375 7.01953125 C-22.14349809 2.85155016 -20.30366206 0.92581819 -16.2734375 -0.91796875 C-10.88060967 -2.59819682 -5.09292593 -2.63029714 0 0 Z " fill="#B41621" transform="translate(1571.8984375,638.98046875)"/>
<path d="M0 0 C3.21510111 4.21982021 3.5263171 8.37338905 3.34765625 13.53125 C2.77487596 17.59863363 1.5332011 19.73350385 -1 23 C-5.71228571 26.39722923 -10.38008224 26.73654218 -16 26 C-20.71878688 24.30835942 -23.20582817 22.13951382 -26 18 C-27.676194 12.97141801 -27.60642735 8.65969589 -25.8125 3.75 C-23.49437397 0.23284327 -21.07680139 -2.16927944 -17.125 -3.75 C-10.40976464 -4.54002769 -5.53193531 -3.9869804 0 0 Z " fill="#B41621" transform="translate(1503,641)"/>
</svg>
