<svg xmlns="http://www.w3.org/2000/svg" viewBox="0 0 1500 1500" width="512" height="512">
  <path d="M424 271c3.448 2.893 6.764 5.872 10 9 .737.712 1.475 1.423 2.234 2.156 20.814 21.552 29.351 51.197 28.98 80.535-.895 30.76-14.865 56.89-36.285 78.391-21.591 20.234-51.018 29.85-80.284 29.164-24.455-1.032-49.298-9.84-67.641-26.246-.828-.697-1.655-1.395-2.508-2.113-22.124-19.045-35.309-46.923-37.492-75.887-1.562-27.307 5.886-56.69 23.985-77.746.665-.744 1.33-1.488 2.015-2.254.686-.816 1.372-1.632 2.079-2.473 38.608-44.927 109.578-50.302 155-12.527z" fill="currentColor"/>
  <path d="M179.25 21.938c1.593 1.343 3.176 2.697 4.75 4.062.808.664 1.616 1.328 2.449 2.012 20.57 17.47 33.49 43.289 36.551 69.988 2.251 36.027-7.547 65.071-30.953 92.27-13.6 14.516-32.071 24.434-51.047 29.73-1.075.32-2.15.639-3.258.959-17.37 4.352-38.572 4.128-55.742-1.07-1.794-.493-1.794-.493-3.625-.996-29.117-8.765-52.204-28.933-66.688-55.441-3.807-7.255-6.482-14.662-8.687-22.562-.48-1.613-.48-1.613-.97-3.258-4.352-17.37-4.128-38.572 1.07-55.742.329-1.196.658-2.393.996-3.625 8.721-28.968 28.786-52.168 55.293-66.554 37.747-19.449 86.292-16.223 119.96 11.227z" fill="currentColor"/>
  <path d="M183.394 271.593c21.859 19.147 36.497 44.138 39.606 73.407 1.703 32.531-5.125 61.922-27 87-6.935 7.665-14.139 14.591-23 20-1.045.655-2.09 1.31-3.167 1.985-12.726 7.757-26.127 12.521-40.832 15.015-.75.132-1.5.263-2.273.399-27.963 3.964-57.813-3.331-80.682-19.815-11.21-8.44-21.7-18.586-29.045-30.586-.569-.862-1.137-1.724-1.723-2.613-15.146-24.067-19.943-55.57-13.653-83.261.698-2.743 1.502-5.433 2.375-8.125.322-1.022.322-1.022.65-2.065 4.766-14.797 12.119-27.184 22.35-38.934.5-.633 1-1.266 1.516-1.918 15.946-20.024 43.001-32.669 68.992-35.7 30.972-2.987 61.959 4.88 85.886 25.211z" fill="currentColor"/>
  <path d="M382 3c1.796.493 1.796.493 3.629.996 27.788 8.374 51.532 27.43 65.519 52.847 14.831 27.927 18.066 58.706 8.901 88.983-4.597 14.322-11.546 26.508-21.05 38.168-.613.777-1.225 1.555-1.856 2.355-13.863 16.701-33.74 27.305-54.145 33.645-1.151.362-2.302.725-3.488 1.097-29.224 7.383-60.153.854-85.743-14.028-24.647-14.895-42.872-40.152-49.77-68.069-6.952-31.265-1.977-62.447 15.246-89.629 17.281-25.998 43.378-42.225 73.754-48.369 15.563-2.941 33.787-2.468 49 2z" fill="currentColor"/>
</svg>
